<svg width="538" height="560" viewBox="0 0 538 560" fill="none" xmlns="http://www.w3.org/2000/svg">
<circle cx="277" cy="279" r="198.5" stroke="#2A3071" stroke-width="3"/>
<rect x="274" y="479" width="5" height="25" fill="#2A3071"/>
<rect x="274" y="54" width="5" height="25" fill="#2A3071"/>
<rect x="378.732" y="106.928" width="5" height="25" transform="rotate(-150 378.732 106.928)" fill="#2A3071"/>
<rect x="166.165" y="475.105" width="5" height="25" transform="rotate(-150 166.165 475.105)" fill="#2A3071"/>
<rect x="82.8945" y="393.665" width="5" height="25" transform="rotate(-120 82.8945 393.665)" fill="#2A3071"/>
<rect x="450.895" y="181.2" width="5" height="25" transform="rotate(-120 450.895 181.2)" fill="#2A3071"/>
<rect x="477" y="281" width="5" height="25" transform="rotate(-90 477 281)" fill="#2A3071"/>
<rect x="52" y="281" width="5" height="25" transform="rotate(-90 52 281)" fill="#2A3071"/>
<rect x="80.3945" y="168.665" width="5" height="25" transform="rotate(-60 80.3945 168.665)" fill="#2A3071"/>
<rect x="449.593" y="381.822" width="5" height="25" transform="rotate(-60 449.593 381.822)" fill="#2A3071"/>
<rect x="372" y="454.5" width="5" height="25" transform="rotate(-30 372 454.5)" fill="#2A3071"/>
<rect x="161.835" y="85.3945" width="5" height="25" transform="rotate(-30 161.835 85.3945)" fill="#2A3071"/>
<path d="M290.82 9.875V44H283.789L270.078 21.125V44H263.047V9.875H270.078L283.812 32.7734V9.875H290.82Z" fill="#2A3071"/>
<path d="M282.812 539.07C282.812 538.461 282.719 537.914 282.531 537.43C282.359 536.93 282.031 536.477 281.547 536.07C281.062 535.648 280.383 535.234 279.508 534.828C278.633 534.422 277.5 534 276.109 533.562C274.562 533.062 273.094 532.5 271.703 531.875C270.328 531.25 269.109 530.523 268.047 529.695C267 528.852 266.172 527.875 265.562 526.766C264.969 525.656 264.672 524.367 264.672 522.898C264.672 521.477 264.984 520.188 265.609 519.031C266.234 517.859 267.109 516.859 268.234 516.031C269.359 515.188 270.688 514.539 272.219 514.086C273.766 513.633 275.461 513.406 277.305 513.406C279.82 513.406 282.016 513.859 283.891 514.766C285.766 515.672 287.219 516.914 288.25 518.492C289.297 520.07 289.82 521.875 289.82 523.906H282.836C282.836 522.906 282.625 522.031 282.203 521.281C281.797 520.516 281.172 519.914 280.328 519.477C279.5 519.039 278.453 518.82 277.188 518.82C275.969 518.82 274.953 519.008 274.141 519.383C273.328 519.742 272.719 520.234 272.312 520.859C271.906 521.469 271.703 522.156 271.703 522.922C271.703 523.5 271.844 524.023 272.125 524.492C272.422 524.961 272.859 525.398 273.438 525.805C274.016 526.211 274.727 526.594 275.57 526.953C276.414 527.312 277.391 527.664 278.5 528.008C280.359 528.57 281.992 529.203 283.398 529.906C284.82 530.609 286.008 531.398 286.961 532.273C287.914 533.148 288.633 534.141 289.117 535.25C289.602 536.359 289.844 537.617 289.844 539.023C289.844 540.508 289.555 541.836 288.977 543.008C288.398 544.18 287.562 545.172 286.469 545.984C285.375 546.797 284.07 547.414 282.555 547.836C281.039 548.258 279.344 548.469 277.469 548.469C275.781 548.469 274.117 548.25 272.477 547.812C270.836 547.359 269.344 546.68 268 545.773C266.672 544.867 265.609 543.711 264.812 542.305C264.016 540.898 263.617 539.234 263.617 537.312H270.672C270.672 538.375 270.836 539.273 271.164 540.008C271.492 540.742 271.953 541.336 272.547 541.789C273.156 542.242 273.875 542.57 274.703 542.773C275.547 542.977 276.469 543.078 277.469 543.078C278.688 543.078 279.688 542.906 280.469 542.562C281.266 542.219 281.852 541.742 282.227 541.133C282.617 540.523 282.812 539.836 282.812 539.07Z" fill="#2A3071"/>
<path d="M536.945 289.516V295H518.781V289.516H536.945ZM521.078 260.875V295H514.047V260.875H521.078ZM534.578 274.773V280.117H518.781V274.773H534.578ZM536.922 260.875V266.383H518.781V260.875H536.922Z" fill="#2A3071"/>
<path d="M11.2734 286.586L18.0703 257.875H21.8672L22.7344 262.656L15.4922 292H11.4141L11.2734 286.586ZM7.78125 257.875L13.4062 286.586L12.9375 292H8.39062L0.820312 257.875H7.78125ZM28.7109 286.469L34.2656 257.875H41.2266L33.6797 292H29.1328L28.7109 286.469ZM24 257.875L30.8438 286.703L30.6562 292H26.5781L19.2891 262.633L20.2266 257.875H24Z" fill="#2A3071"/>
<path d="M387.629 66.0039H389.434C390.012 66.0039 390.488 65.9062 390.863 65.7109C391.238 65.5078 391.516 65.2266 391.695 64.8672C391.883 64.5 391.977 64.0742 391.977 63.5898C391.977 63.1523 391.891 62.7656 391.719 62.4297C391.555 62.0859 391.301 61.8203 390.957 61.6328C390.613 61.4375 390.18 61.3398 389.656 61.3398C389.242 61.3398 388.859 61.4219 388.508 61.5859C388.156 61.75 387.875 61.9805 387.664 62.2773C387.453 62.5742 387.348 62.9336 387.348 63.3555H383.961C383.961 62.418 384.211 61.6016 384.711 60.9062C385.219 60.2109 385.898 59.668 386.75 59.2773C387.602 58.8867 388.539 58.6914 389.562 58.6914C390.719 58.6914 391.73 58.8789 392.598 59.2539C393.465 59.6211 394.141 60.1641 394.625 60.8828C395.109 61.6016 395.352 62.4922 395.352 63.5547C395.352 64.0938 395.227 64.6172 394.977 65.125C394.727 65.625 394.367 66.0781 393.898 66.4844C393.438 66.8828 392.875 67.2031 392.211 67.4453C391.547 67.6797 390.801 67.7969 389.973 67.7969H387.629V66.0039ZM387.629 68.5703V66.8242H389.973C390.902 66.8242 391.719 66.9297 392.422 67.1406C393.125 67.3516 393.715 67.6562 394.191 68.0547C394.668 68.4453 395.027 68.9102 395.27 69.4492C395.512 69.9805 395.633 70.5703 395.633 71.2188C395.633 72.0156 395.48 72.7266 395.176 73.3516C394.871 73.9688 394.441 74.4922 393.887 74.9219C393.34 75.3516 392.699 75.6797 391.965 75.9062C391.23 76.125 390.43 76.2344 389.562 76.2344C388.844 76.2344 388.137 76.1367 387.441 75.9414C386.754 75.7383 386.129 75.4375 385.566 75.0391C385.012 74.6328 384.566 74.125 384.23 73.5156C383.902 72.8984 383.738 72.168 383.738 71.3242H387.125C387.125 71.7617 387.234 72.1523 387.453 72.4961C387.672 72.8398 387.973 73.1094 388.355 73.3047C388.746 73.5 389.18 73.5977 389.656 73.5977C390.195 73.5977 390.656 73.5 391.039 73.3047C391.43 73.1016 391.727 72.8203 391.93 72.4609C392.141 72.0938 392.246 71.668 392.246 71.1836C392.246 70.5586 392.133 70.0586 391.906 69.6836C391.68 69.3008 391.355 69.0195 390.934 68.8398C390.512 68.6602 390.012 68.5703 389.434 68.5703H387.629ZM409.438 65.9688V68.9219C409.438 70.2031 409.301 71.3086 409.027 72.2383C408.754 73.1602 408.359 73.918 407.844 74.5117C407.336 75.0977 406.73 75.5312 406.027 75.8125C405.324 76.0938 404.543 76.2344 403.684 76.2344C402.996 76.2344 402.355 76.1484 401.762 75.9766C401.168 75.7969 400.633 75.5195 400.156 75.1445C399.688 74.7695 399.281 74.2969 398.938 73.7266C398.602 73.1484 398.344 72.4609 398.164 71.6641C397.984 70.8672 397.895 69.9531 397.895 68.9219V65.9688C397.895 64.6875 398.031 63.5898 398.305 62.6758C398.586 61.7539 398.98 61 399.488 60.4141C400.004 59.8281 400.613 59.3984 401.316 59.125C402.02 58.8438 402.801 58.7031 403.66 58.7031C404.348 58.7031 404.984 58.793 405.57 58.9727C406.164 59.1445 406.699 59.4141 407.176 59.7812C407.652 60.1484 408.059 60.6211 408.395 61.1992C408.73 61.7695 408.988 62.4531 409.168 63.25C409.348 64.0391 409.438 64.9453 409.438 65.9688ZM406.051 69.3672V65.5117C406.051 64.8945 406.016 64.3555 405.945 63.8945C405.883 63.4336 405.785 63.043 405.652 62.7227C405.52 62.3945 405.355 62.1289 405.16 61.9258C404.965 61.7227 404.742 61.5742 404.492 61.4805C404.242 61.3867 403.965 61.3398 403.66 61.3398C403.277 61.3398 402.938 61.4141 402.641 61.5625C402.352 61.7109 402.105 61.9492 401.902 62.2773C401.699 62.5977 401.543 63.0273 401.434 63.5664C401.332 64.0977 401.281 64.7461 401.281 65.5117V69.3672C401.281 69.9844 401.312 70.5273 401.375 70.9961C401.445 71.4648 401.547 71.8672 401.68 72.2031C401.82 72.5312 401.984 72.8008 402.172 73.0117C402.367 73.2148 402.59 73.3633 402.84 73.457C403.098 73.5508 403.379 73.5977 403.684 73.5977C404.059 73.5977 404.391 73.5234 404.68 73.375C404.977 73.2188 405.227 72.9766 405.43 72.6484C405.641 72.3125 405.797 71.875 405.898 71.3359C406 70.7969 406.051 70.1406 406.051 69.3672ZM412.062 61.9141C412.062 61.3281 412.207 60.793 412.496 60.3086C412.785 59.8164 413.172 59.4258 413.656 59.1367C414.141 58.8477 414.672 58.7031 415.25 58.7031C415.82 58.7031 416.344 58.8477 416.82 59.1367C417.297 59.4258 417.676 59.8164 417.957 60.3086C418.238 60.793 418.379 61.3281 418.379 61.9141C418.379 62.5 418.238 63.0352 417.957 63.5195C417.676 63.9961 417.297 64.375 416.82 64.6562C416.344 64.9375 415.82 65.0781 415.25 65.0781C414.672 65.0781 414.141 64.9375 413.656 64.6562C413.172 64.375 412.785 63.9961 412.496 63.5195C412.207 63.0352 412.062 62.5 412.062 61.9141ZM413.75 61.9141C413.75 62.3359 413.898 62.6875 414.195 62.9688C414.492 63.25 414.844 63.3906 415.25 63.3906C415.656 63.3906 415.996 63.25 416.27 62.9688C416.543 62.6875 416.68 62.3359 416.68 61.9141C416.68 61.4844 416.543 61.125 416.27 60.8359C415.996 60.5469 415.656 60.4023 415.25 60.4023C414.844 60.4023 414.492 60.5469 414.195 60.8359C413.898 61.125 413.75 61.4844 413.75 61.9141Z" fill="#2A3071"/>
<path d="M486.398 384.902V402H483.023V388.793L478.969 390.082V387.422L486.035 384.902H486.398ZM503.625 399.363V402H491.953V399.75L497.473 393.832C498.027 393.215 498.465 392.672 498.785 392.203C499.105 391.727 499.336 391.301 499.477 390.926C499.625 390.543 499.699 390.18 499.699 389.836C499.699 389.32 499.613 388.879 499.441 388.512C499.27 388.137 499.016 387.848 498.68 387.645C498.352 387.441 497.945 387.34 497.461 387.34C496.945 387.34 496.5 387.465 496.125 387.715C495.758 387.965 495.477 388.312 495.281 388.758C495.094 389.203 495 389.707 495 390.27H491.613C491.613 389.254 491.855 388.324 492.34 387.48C492.824 386.629 493.508 385.953 494.391 385.453C495.273 384.945 496.32 384.691 497.531 384.691C498.727 384.691 499.734 384.887 500.555 385.277C501.383 385.66 502.008 386.215 502.43 386.941C502.859 387.66 503.074 388.52 503.074 389.52C503.074 390.082 502.984 390.633 502.805 391.172C502.625 391.703 502.367 392.234 502.031 392.766C501.703 393.289 501.305 393.82 500.836 394.359C500.367 394.898 499.848 395.457 499.277 396.035L496.312 399.363H503.625ZM517.219 391.969V394.922C517.219 396.203 517.082 397.309 516.809 398.238C516.535 399.16 516.141 399.918 515.625 400.512C515.117 401.098 514.512 401.531 513.809 401.812C513.105 402.094 512.324 402.234 511.465 402.234C510.777 402.234 510.137 402.148 509.543 401.977C508.949 401.797 508.414 401.52 507.938 401.145C507.469 400.77 507.062 400.297 506.719 399.727C506.383 399.148 506.125 398.461 505.945 397.664C505.766 396.867 505.676 395.953 505.676 394.922V391.969C505.676 390.688 505.812 389.59 506.086 388.676C506.367 387.754 506.762 387 507.27 386.414C507.785 385.828 508.395 385.398 509.098 385.125C509.801 384.844 510.582 384.703 511.441 384.703C512.129 384.703 512.766 384.793 513.352 384.973C513.945 385.145 514.48 385.414 514.957 385.781C515.434 386.148 515.84 386.621 516.176 387.199C516.512 387.77 516.77 388.453 516.949 389.25C517.129 390.039 517.219 390.945 517.219 391.969ZM513.832 395.367V391.512C513.832 390.895 513.797 390.355 513.727 389.895C513.664 389.434 513.566 389.043 513.434 388.723C513.301 388.395 513.137 388.129 512.941 387.926C512.746 387.723 512.523 387.574 512.273 387.48C512.023 387.387 511.746 387.34 511.441 387.34C511.059 387.34 510.719 387.414 510.422 387.562C510.133 387.711 509.887 387.949 509.684 388.277C509.48 388.598 509.324 389.027 509.215 389.566C509.113 390.098 509.062 390.746 509.062 391.512V395.367C509.062 395.984 509.094 396.527 509.156 396.996C509.227 397.465 509.328 397.867 509.461 398.203C509.602 398.531 509.766 398.801 509.953 399.012C510.148 399.215 510.371 399.363 510.621 399.457C510.879 399.551 511.16 399.598 511.465 399.598C511.84 399.598 512.172 399.523 512.461 399.375C512.758 399.219 513.008 398.977 513.211 398.648C513.422 398.312 513.578 397.875 513.68 397.336C513.781 396.797 513.832 396.141 513.832 395.367ZM519.844 387.914C519.844 387.328 519.988 386.793 520.277 386.309C520.566 385.816 520.953 385.426 521.438 385.137C521.922 384.848 522.453 384.703 523.031 384.703C523.602 384.703 524.125 384.848 524.602 385.137C525.078 385.426 525.457 385.816 525.738 386.309C526.02 386.793 526.16 387.328 526.16 387.914C526.16 388.5 526.02 389.035 525.738 389.52C525.457 389.996 525.078 390.375 524.602 390.656C524.125 390.938 523.602 391.078 523.031 391.078C522.453 391.078 521.922 390.938 521.438 390.656C520.953 390.375 520.566 389.996 520.277 389.52C519.988 389.035 519.844 388.5 519.844 387.914ZM521.531 387.914C521.531 388.336 521.68 388.688 521.977 388.969C522.273 389.25 522.625 389.391 523.031 389.391C523.438 389.391 523.777 389.25 524.051 388.969C524.324 388.688 524.461 388.336 524.461 387.914C524.461 387.484 524.324 387.125 524.051 386.836C523.777 386.547 523.438 386.402 523.031 386.402C522.625 386.402 522.273 386.547 521.977 386.836C521.68 387.125 521.531 387.484 521.531 387.914Z" fill="#2A3071"/>
<path d="M392.398 480.902V498H389.023V484.793L384.969 486.082V483.422L392.035 480.902H392.398ZM401.129 490.23L398.434 489.586L399.406 480.938H408.992V483.668H402.184L401.762 487.453C401.988 487.32 402.332 487.18 402.793 487.031C403.254 486.875 403.77 486.797 404.34 486.797C405.168 486.797 405.902 486.926 406.543 487.184C407.184 487.441 407.727 487.816 408.172 488.309C408.625 488.801 408.969 489.402 409.203 490.113C409.438 490.824 409.555 491.629 409.555 492.527C409.555 493.285 409.438 494.008 409.203 494.695C408.969 495.375 408.613 495.984 408.137 496.523C407.66 497.055 407.062 497.473 406.344 497.777C405.625 498.082 404.773 498.234 403.789 498.234C403.055 498.234 402.344 498.125 401.656 497.906C400.977 497.688 400.363 497.363 399.816 496.934C399.277 496.504 398.844 495.984 398.516 495.375C398.195 494.758 398.027 494.055 398.012 493.266H401.363C401.41 493.75 401.535 494.168 401.738 494.52C401.949 494.863 402.227 495.129 402.57 495.316C402.914 495.504 403.316 495.598 403.777 495.598C404.207 495.598 404.574 495.516 404.879 495.352C405.184 495.188 405.43 494.961 405.617 494.672C405.805 494.375 405.941 494.031 406.027 493.641C406.121 493.242 406.168 492.812 406.168 492.352C406.168 491.891 406.113 491.473 406.004 491.098C405.895 490.723 405.727 490.398 405.5 490.125C405.273 489.852 404.984 489.641 404.633 489.492C404.289 489.344 403.887 489.27 403.426 489.27C402.801 489.27 402.316 489.367 401.973 489.562C401.637 489.758 401.355 489.98 401.129 490.23ZM423.219 487.969V490.922C423.219 492.203 423.082 493.309 422.809 494.238C422.535 495.16 422.141 495.918 421.625 496.512C421.117 497.098 420.512 497.531 419.809 497.812C419.105 498.094 418.324 498.234 417.465 498.234C416.777 498.234 416.137 498.148 415.543 497.977C414.949 497.797 414.414 497.52 413.938 497.145C413.469 496.77 413.062 496.297 412.719 495.727C412.383 495.148 412.125 494.461 411.945 493.664C411.766 492.867 411.676 491.953 411.676 490.922V487.969C411.676 486.688 411.812 485.59 412.086 484.676C412.367 483.754 412.762 483 413.27 482.414C413.785 481.828 414.395 481.398 415.098 481.125C415.801 480.844 416.582 480.703 417.441 480.703C418.129 480.703 418.766 480.793 419.352 480.973C419.945 481.145 420.48 481.414 420.957 481.781C421.434 482.148 421.84 482.621 422.176 483.199C422.512 483.77 422.77 484.453 422.949 485.25C423.129 486.039 423.219 486.945 423.219 487.969ZM419.832 491.367V487.512C419.832 486.895 419.797 486.355 419.727 485.895C419.664 485.434 419.566 485.043 419.434 484.723C419.301 484.395 419.137 484.129 418.941 483.926C418.746 483.723 418.523 483.574 418.273 483.48C418.023 483.387 417.746 483.34 417.441 483.34C417.059 483.34 416.719 483.414 416.422 483.562C416.133 483.711 415.887 483.949 415.684 484.277C415.48 484.598 415.324 485.027 415.215 485.566C415.113 486.098 415.062 486.746 415.062 487.512V491.367C415.062 491.984 415.094 492.527 415.156 492.996C415.227 493.465 415.328 493.867 415.461 494.203C415.602 494.531 415.766 494.801 415.953 495.012C416.148 495.215 416.371 495.363 416.621 495.457C416.879 495.551 417.16 495.598 417.465 495.598C417.84 495.598 418.172 495.523 418.461 495.375C418.758 495.219 419.008 494.977 419.211 494.648C419.422 494.312 419.578 493.875 419.68 493.336C419.781 492.797 419.832 492.141 419.832 491.367ZM425.844 483.914C425.844 483.328 425.988 482.793 426.277 482.309C426.566 481.816 426.953 481.426 427.438 481.137C427.922 480.848 428.453 480.703 429.031 480.703C429.602 480.703 430.125 480.848 430.602 481.137C431.078 481.426 431.457 481.816 431.738 482.309C432.02 482.793 432.16 483.328 432.16 483.914C432.16 484.5 432.02 485.035 431.738 485.52C431.457 485.996 431.078 486.375 430.602 486.656C430.125 486.938 429.602 487.078 429.031 487.078C428.453 487.078 427.922 486.938 427.438 486.656C426.953 486.375 426.566 485.996 426.277 485.52C425.988 485.035 425.844 484.5 425.844 483.914ZM427.531 483.914C427.531 484.336 427.68 484.688 427.977 484.969C428.273 485.25 428.625 485.391 429.031 485.391C429.438 485.391 429.777 485.25 430.051 484.969C430.324 484.688 430.461 484.336 430.461 483.914C430.461 483.484 430.324 483.125 430.051 482.836C429.777 482.547 429.438 482.402 429.031 482.402C428.625 482.402 428.273 482.547 427.977 482.836C427.68 483.125 427.531 483.484 427.531 483.914Z" fill="#2A3071"/>
<path d="M140.844 495.363V498H129.172V495.75L134.691 489.832C135.246 489.215 135.684 488.672 136.004 488.203C136.324 487.727 136.555 487.301 136.695 486.926C136.844 486.543 136.918 486.18 136.918 485.836C136.918 485.32 136.832 484.879 136.66 484.512C136.488 484.137 136.234 483.848 135.898 483.645C135.57 483.441 135.164 483.34 134.68 483.34C134.164 483.34 133.719 483.465 133.344 483.715C132.977 483.965 132.695 484.312 132.5 484.758C132.312 485.203 132.219 485.707 132.219 486.27H128.832C128.832 485.254 129.074 484.324 129.559 483.48C130.043 482.629 130.727 481.953 131.609 481.453C132.492 480.945 133.539 480.691 134.75 480.691C135.945 480.691 136.953 480.887 137.773 481.277C138.602 481.66 139.227 482.215 139.648 482.941C140.078 483.66 140.293 484.52 140.293 485.52C140.293 486.082 140.203 486.633 140.023 487.172C139.844 487.703 139.586 488.234 139.25 488.766C138.922 489.289 138.523 489.82 138.055 490.359C137.586 490.898 137.066 491.457 136.496 492.035L133.531 495.363H140.844ZM151.18 480.902V498H147.805V484.793L143.75 486.082V483.422L150.816 480.902H151.18ZM168.219 487.969V490.922C168.219 492.203 168.082 493.309 167.809 494.238C167.535 495.16 167.141 495.918 166.625 496.512C166.117 497.098 165.512 497.531 164.809 497.812C164.105 498.094 163.324 498.234 162.465 498.234C161.777 498.234 161.137 498.148 160.543 497.977C159.949 497.797 159.414 497.52 158.938 497.145C158.469 496.77 158.062 496.297 157.719 495.727C157.383 495.148 157.125 494.461 156.945 493.664C156.766 492.867 156.676 491.953 156.676 490.922V487.969C156.676 486.688 156.812 485.59 157.086 484.676C157.367 483.754 157.762 483 158.27 482.414C158.785 481.828 159.395 481.398 160.098 481.125C160.801 480.844 161.582 480.703 162.441 480.703C163.129 480.703 163.766 480.793 164.352 480.973C164.945 481.145 165.48 481.414 165.957 481.781C166.434 482.148 166.84 482.621 167.176 483.199C167.512 483.77 167.77 484.453 167.949 485.25C168.129 486.039 168.219 486.945 168.219 487.969ZM164.832 491.367V487.512C164.832 486.895 164.797 486.355 164.727 485.895C164.664 485.434 164.566 485.043 164.434 484.723C164.301 484.395 164.137 484.129 163.941 483.926C163.746 483.723 163.523 483.574 163.273 483.48C163.023 483.387 162.746 483.34 162.441 483.34C162.059 483.34 161.719 483.414 161.422 483.562C161.133 483.711 160.887 483.949 160.684 484.277C160.48 484.598 160.324 485.027 160.215 485.566C160.113 486.098 160.062 486.746 160.062 487.512V491.367C160.062 491.984 160.094 492.527 160.156 492.996C160.227 493.465 160.328 493.867 160.461 494.203C160.602 494.531 160.766 494.801 160.953 495.012C161.148 495.215 161.371 495.363 161.621 495.457C161.879 495.551 162.16 495.598 162.465 495.598C162.84 495.598 163.172 495.523 163.461 495.375C163.758 495.219 164.008 494.977 164.211 494.648C164.422 494.312 164.578 493.875 164.68 493.336C164.781 492.797 164.832 492.141 164.832 491.367ZM170.844 483.914C170.844 483.328 170.988 482.793 171.277 482.309C171.566 481.816 171.953 481.426 172.438 481.137C172.922 480.848 173.453 480.703 174.031 480.703C174.602 480.703 175.125 480.848 175.602 481.137C176.078 481.426 176.457 481.816 176.738 482.309C177.02 482.793 177.16 483.328 177.16 483.914C177.16 484.5 177.02 485.035 176.738 485.52C176.457 485.996 176.078 486.375 175.602 486.656C175.125 486.938 174.602 487.078 174.031 487.078C173.453 487.078 172.922 486.938 172.438 486.656C171.953 486.375 171.566 485.996 171.277 485.52C170.988 485.035 170.844 484.5 170.844 483.914ZM172.531 483.914C172.531 484.336 172.68 484.688 172.977 484.969C173.273 485.25 173.625 485.391 174.031 485.391C174.438 485.391 174.777 485.25 175.051 484.969C175.324 484.688 175.461 484.336 175.461 483.914C175.461 483.484 175.324 483.125 175.051 482.836C174.777 482.547 174.438 482.402 174.031 482.402C173.625 482.402 173.273 482.547 172.977 482.836C172.68 483.125 172.531 483.484 172.531 483.914Z" fill="#2A3071"/>
<path d="M41.8438 399.363V402H30.1719V399.75L35.6914 393.832C36.2461 393.215 36.6836 392.672 37.0039 392.203C37.3242 391.727 37.5547 391.301 37.6953 390.926C37.8438 390.543 37.918 390.18 37.918 389.836C37.918 389.32 37.832 388.879 37.6602 388.512C37.4883 388.137 37.2344 387.848 36.8984 387.645C36.5703 387.441 36.1641 387.34 35.6797 387.34C35.1641 387.34 34.7188 387.465 34.3438 387.715C33.9766 387.965 33.6953 388.312 33.5 388.758C33.3125 389.203 33.2188 389.707 33.2188 390.27H29.832C29.832 389.254 30.0742 388.324 30.5586 387.48C31.043 386.629 31.7266 385.953 32.6094 385.453C33.4922 384.945 34.5391 384.691 35.75 384.691C36.9453 384.691 37.9531 384.887 38.7734 385.277C39.6016 385.66 40.2266 386.215 40.6484 386.941C41.0781 387.66 41.293 388.52 41.293 389.52C41.293 390.082 41.2031 390.633 41.0234 391.172C40.8438 391.703 40.5859 392.234 40.25 392.766C39.9219 393.289 39.5234 393.82 39.0547 394.359C38.5859 394.898 38.0664 395.457 37.4961 396.035L34.5312 399.363H41.8438ZM55.9062 395.625V398.273H43.6133L43.4492 396.223L50.5625 384.938H53.2461L50.3398 389.801L46.8008 395.625H55.9062ZM53.9727 384.938V402H50.5977V384.938H53.9727ZM69.2188 391.969V394.922C69.2188 396.203 69.082 397.309 68.8086 398.238C68.5352 399.16 68.1406 399.918 67.625 400.512C67.1172 401.098 66.5117 401.531 65.8086 401.812C65.1055 402.094 64.3242 402.234 63.4648 402.234C62.7773 402.234 62.1367 402.148 61.543 401.977C60.9492 401.797 60.4141 401.52 59.9375 401.145C59.4688 400.77 59.0625 400.297 58.7188 399.727C58.3828 399.148 58.125 398.461 57.9453 397.664C57.7656 396.867 57.6758 395.953 57.6758 394.922V391.969C57.6758 390.688 57.8125 389.59 58.0859 388.676C58.3672 387.754 58.7617 387 59.2695 386.414C59.7852 385.828 60.3945 385.398 61.0977 385.125C61.8008 384.844 62.582 384.703 63.4414 384.703C64.1289 384.703 64.7656 384.793 65.3516 384.973C65.9453 385.145 66.4805 385.414 66.957 385.781C67.4336 386.148 67.8398 386.621 68.1758 387.199C68.5117 387.77 68.7695 388.453 68.9492 389.25C69.1289 390.039 69.2188 390.945 69.2188 391.969ZM65.832 395.367V391.512C65.832 390.895 65.7969 390.355 65.7266 389.895C65.6641 389.434 65.5664 389.043 65.4336 388.723C65.3008 388.395 65.1367 388.129 64.9414 387.926C64.7461 387.723 64.5234 387.574 64.2734 387.48C64.0234 387.387 63.7461 387.34 63.4414 387.34C63.0586 387.34 62.7188 387.414 62.4219 387.562C62.1328 387.711 61.8867 387.949 61.6836 388.277C61.4805 388.598 61.3242 389.027 61.2148 389.566C61.1133 390.098 61.0625 390.746 61.0625 391.512V395.367C61.0625 395.984 61.0938 396.527 61.1562 396.996C61.2266 397.465 61.3281 397.867 61.4609 398.203C61.6016 398.531 61.7656 398.801 61.9531 399.012C62.1484 399.215 62.3711 399.363 62.6211 399.457C62.8789 399.551 63.1602 399.598 63.4648 399.598C63.8398 399.598 64.1719 399.523 64.4609 399.375C64.7578 399.219 65.0078 398.977 65.2109 398.648C65.4219 398.312 65.5781 397.875 65.6797 397.336C65.7812 396.797 65.832 396.141 65.832 395.367ZM71.8438 387.914C71.8438 387.328 71.9883 386.793 72.2773 386.309C72.5664 385.816 72.9531 385.426 73.4375 385.137C73.9219 384.848 74.4531 384.703 75.0312 384.703C75.6016 384.703 76.125 384.848 76.6016 385.137C77.0781 385.426 77.457 385.816 77.7383 386.309C78.0195 386.793 78.1602 387.328 78.1602 387.914C78.1602 388.5 78.0195 389.035 77.7383 389.52C77.457 389.996 77.0781 390.375 76.6016 390.656C76.125 390.938 75.6016 391.078 75.0312 391.078C74.4531 391.078 73.9219 390.938 73.4375 390.656C72.9531 390.375 72.5664 389.996 72.2773 389.52C71.9883 389.035 71.8438 388.5 71.8438 387.914ZM73.5312 387.914C73.5312 388.336 73.6797 388.688 73.9766 388.969C74.2734 389.25 74.625 389.391 75.0312 389.391C75.4375 389.391 75.7773 389.25 76.0508 388.969C76.3242 388.688 76.4609 388.336 76.4609 387.914C76.4609 387.484 76.3242 387.125 76.0508 386.836C75.7773 386.547 75.4375 386.402 75.0312 386.402C74.625 386.402 74.2734 386.547 73.9766 386.836C73.6797 387.125 73.5312 387.484 73.5312 387.914Z" fill="#2A3071"/>
<path d="M33.6289 157.004H35.4336C36.0117 157.004 36.4883 156.906 36.8633 156.711C37.2383 156.508 37.5156 156.227 37.6953 155.867C37.8828 155.5 37.9766 155.074 37.9766 154.59C37.9766 154.152 37.8906 153.766 37.7188 153.43C37.5547 153.086 37.3008 152.82 36.957 152.633C36.6133 152.438 36.1797 152.34 35.6562 152.34C35.2422 152.34 34.8594 152.422 34.5078 152.586C34.1562 152.75 33.875 152.98 33.6641 153.277C33.4531 153.574 33.3477 153.934 33.3477 154.355H29.9609C29.9609 153.418 30.2109 152.602 30.7109 151.906C31.2188 151.211 31.8984 150.668 32.75 150.277C33.6016 149.887 34.5391 149.691 35.5625 149.691C36.7188 149.691 37.7305 149.879 38.5977 150.254C39.4648 150.621 40.1406 151.164 40.625 151.883C41.1094 152.602 41.3516 153.492 41.3516 154.555C41.3516 155.094 41.2266 155.617 40.9766 156.125C40.7266 156.625 40.3672 157.078 39.8984 157.484C39.4375 157.883 38.875 158.203 38.2109 158.445C37.5469 158.68 36.8008 158.797 35.9727 158.797H33.6289V157.004ZM33.6289 159.57V157.824H35.9727C36.9023 157.824 37.7188 157.93 38.4219 158.141C39.125 158.352 39.7148 158.656 40.1914 159.055C40.668 159.445 41.0273 159.91 41.2695 160.449C41.5117 160.98 41.6328 161.57 41.6328 162.219C41.6328 163.016 41.4805 163.727 41.1758 164.352C40.8711 164.969 40.4414 165.492 39.8867 165.922C39.3398 166.352 38.6992 166.68 37.9648 166.906C37.2305 167.125 36.4297 167.234 35.5625 167.234C34.8438 167.234 34.1367 167.137 33.4414 166.941C32.7539 166.738 32.1289 166.438 31.5664 166.039C31.0117 165.633 30.5664 165.125 30.2305 164.516C29.9023 163.898 29.7383 163.168 29.7383 162.324H33.125C33.125 162.762 33.2344 163.152 33.4531 163.496C33.6719 163.84 33.9727 164.109 34.3555 164.305C34.7461 164.5 35.1797 164.598 35.6562 164.598C36.1953 164.598 36.6562 164.5 37.0391 164.305C37.4297 164.102 37.7266 163.82 37.9297 163.461C38.1406 163.094 38.2461 162.668 38.2461 162.184C38.2461 161.559 38.1328 161.059 37.9062 160.684C37.6797 160.301 37.3555 160.02 36.9336 159.84C36.5117 159.66 36.0117 159.57 35.4336 159.57H33.6289ZM55.4375 156.969V159.922C55.4375 161.203 55.3008 162.309 55.0273 163.238C54.7539 164.16 54.3594 164.918 53.8438 165.512C53.3359 166.098 52.7305 166.531 52.0273 166.812C51.3242 167.094 50.543 167.234 49.6836 167.234C48.9961 167.234 48.3555 167.148 47.7617 166.977C47.168 166.797 46.6328 166.52 46.1562 166.145C45.6875 165.77 45.2812 165.297 44.9375 164.727C44.6016 164.148 44.3438 163.461 44.1641 162.664C43.9844 161.867 43.8945 160.953 43.8945 159.922V156.969C43.8945 155.688 44.0312 154.59 44.3047 153.676C44.5859 152.754 44.9805 152 45.4883 151.414C46.0039 150.828 46.6133 150.398 47.3164 150.125C48.0195 149.844 48.8008 149.703 49.6602 149.703C50.3477 149.703 50.9844 149.793 51.5703 149.973C52.1641 150.145 52.6992 150.414 53.1758 150.781C53.6523 151.148 54.0586 151.621 54.3945 152.199C54.7305 152.77 54.9883 153.453 55.168 154.25C55.3477 155.039 55.4375 155.945 55.4375 156.969ZM52.0508 160.367V156.512C52.0508 155.895 52.0156 155.355 51.9453 154.895C51.8828 154.434 51.7852 154.043 51.6523 153.723C51.5195 153.395 51.3555 153.129 51.1602 152.926C50.9648 152.723 50.7422 152.574 50.4922 152.48C50.2422 152.387 49.9648 152.34 49.6602 152.34C49.2773 152.34 48.9375 152.414 48.6406 152.562C48.3516 152.711 48.1055 152.949 47.9023 153.277C47.6992 153.598 47.543 154.027 47.4336 154.566C47.332 155.098 47.2812 155.746 47.2812 156.512V160.367C47.2812 160.984 47.3125 161.527 47.375 161.996C47.4453 162.465 47.5469 162.867 47.6797 163.203C47.8203 163.531 47.9844 163.801 48.1719 164.012C48.3672 164.215 48.5898 164.363 48.8398 164.457C49.0977 164.551 49.3789 164.598 49.6836 164.598C50.0586 164.598 50.3906 164.523 50.6797 164.375C50.9766 164.219 51.2266 163.977 51.4297 163.648C51.6406 163.312 51.7969 162.875 51.8984 162.336C52 161.797 52.0508 161.141 52.0508 160.367ZM69.2188 156.969V159.922C69.2188 161.203 69.082 162.309 68.8086 163.238C68.5352 164.16 68.1406 164.918 67.625 165.512C67.1172 166.098 66.5117 166.531 65.8086 166.812C65.1055 167.094 64.3242 167.234 63.4648 167.234C62.7773 167.234 62.1367 167.148 61.543 166.977C60.9492 166.797 60.4141 166.52 59.9375 166.145C59.4688 165.77 59.0625 165.297 58.7188 164.727C58.3828 164.148 58.125 163.461 57.9453 162.664C57.7656 161.867 57.6758 160.953 57.6758 159.922V156.969C57.6758 155.688 57.8125 154.59 58.0859 153.676C58.3672 152.754 58.7617 152 59.2695 151.414C59.7852 150.828 60.3945 150.398 61.0977 150.125C61.8008 149.844 62.582 149.703 63.4414 149.703C64.1289 149.703 64.7656 149.793 65.3516 149.973C65.9453 150.145 66.4805 150.414 66.957 150.781C67.4336 151.148 67.8398 151.621 68.1758 152.199C68.5117 152.77 68.7695 153.453 68.9492 154.25C69.1289 155.039 69.2188 155.945 69.2188 156.969ZM65.832 160.367V156.512C65.832 155.895 65.7969 155.355 65.7266 154.895C65.6641 154.434 65.5664 154.043 65.4336 153.723C65.3008 153.395 65.1367 153.129 64.9414 152.926C64.7461 152.723 64.5234 152.574 64.2734 152.48C64.0234 152.387 63.7461 152.34 63.4414 152.34C63.0586 152.34 62.7188 152.414 62.4219 152.562C62.1328 152.711 61.8867 152.949 61.6836 153.277C61.4805 153.598 61.3242 154.027 61.2148 154.566C61.1133 155.098 61.0625 155.746 61.0625 156.512V160.367C61.0625 160.984 61.0938 161.527 61.1562 161.996C61.2266 162.465 61.3281 162.867 61.4609 163.203C61.6016 163.531 61.7656 163.801 61.9531 164.012C62.1484 164.215 62.3711 164.363 62.6211 164.457C62.8789 164.551 63.1602 164.598 63.4648 164.598C63.8398 164.598 64.1719 164.523 64.4609 164.375C64.7578 164.219 65.0078 163.977 65.2109 163.648C65.4219 163.312 65.5781 162.875 65.6797 162.336C65.7812 161.797 65.832 161.141 65.832 160.367ZM71.8438 152.914C71.8438 152.328 71.9883 151.793 72.2773 151.309C72.5664 150.816 72.9531 150.426 73.4375 150.137C73.9219 149.848 74.4531 149.703 75.0312 149.703C75.6016 149.703 76.125 149.848 76.6016 150.137C77.0781 150.426 77.457 150.816 77.7383 151.309C78.0195 151.793 78.1602 152.328 78.1602 152.914C78.1602 153.5 78.0195 154.035 77.7383 154.52C77.457 154.996 77.0781 155.375 76.6016 155.656C76.125 155.938 75.6016 156.078 75.0312 156.078C74.4531 156.078 73.9219 155.938 73.4375 155.656C72.9531 155.375 72.5664 154.996 72.2773 154.52C71.9883 154.035 71.8438 153.5 71.8438 152.914ZM73.5312 152.914C73.5312 153.336 73.6797 153.688 73.9766 153.969C74.2734 154.25 74.625 154.391 75.0312 154.391C75.4375 154.391 75.7773 154.25 76.0508 153.969C76.3242 153.688 76.4609 153.336 76.4609 152.914C76.4609 152.484 76.3242 152.125 76.0508 151.836C75.7773 151.547 75.4375 151.402 75.0312 151.402C74.625 151.402 74.2734 151.547 73.9766 151.836C73.6797 152.125 73.5312 152.484 73.5312 152.914Z" fill="#2A3071"/>
<path d="M132.629 66.0039H134.434C135.012 66.0039 135.488 65.9062 135.863 65.7109C136.238 65.5078 136.516 65.2266 136.695 64.8672C136.883 64.5 136.977 64.0742 136.977 63.5898C136.977 63.1523 136.891 62.7656 136.719 62.4297C136.555 62.0859 136.301 61.8203 135.957 61.6328C135.613 61.4375 135.18 61.3398 134.656 61.3398C134.242 61.3398 133.859 61.4219 133.508 61.5859C133.156 61.75 132.875 61.9805 132.664 62.2773C132.453 62.5742 132.348 62.9336 132.348 63.3555H128.961C128.961 62.418 129.211 61.6016 129.711 60.9062C130.219 60.2109 130.898 59.668 131.75 59.2773C132.602 58.8867 133.539 58.6914 134.562 58.6914C135.719 58.6914 136.73 58.8789 137.598 59.2539C138.465 59.6211 139.141 60.1641 139.625 60.8828C140.109 61.6016 140.352 62.4922 140.352 63.5547C140.352 64.0938 140.227 64.6172 139.977 65.125C139.727 65.625 139.367 66.0781 138.898 66.4844C138.438 66.8828 137.875 67.2031 137.211 67.4453C136.547 67.6797 135.801 67.7969 134.973 67.7969H132.629V66.0039ZM132.629 68.5703V66.8242H134.973C135.902 66.8242 136.719 66.9297 137.422 67.1406C138.125 67.3516 138.715 67.6562 139.191 68.0547C139.668 68.4453 140.027 68.9102 140.27 69.4492C140.512 69.9805 140.633 70.5703 140.633 71.2188C140.633 72.0156 140.48 72.7266 140.176 73.3516C139.871 73.9688 139.441 74.4922 138.887 74.9219C138.34 75.3516 137.699 75.6797 136.965 75.9062C136.23 76.125 135.43 76.2344 134.562 76.2344C133.844 76.2344 133.137 76.1367 132.441 75.9414C131.754 75.7383 131.129 75.4375 130.566 75.0391C130.012 74.6328 129.566 74.125 129.23 73.5156C128.902 72.8984 128.738 72.168 128.738 71.3242H132.125C132.125 71.7617 132.234 72.1523 132.453 72.4961C132.672 72.8398 132.973 73.1094 133.355 73.3047C133.746 73.5 134.18 73.5977 134.656 73.5977C135.195 73.5977 135.656 73.5 136.039 73.3047C136.43 73.1016 136.727 72.8203 136.93 72.4609C137.141 72.0938 137.246 71.668 137.246 71.1836C137.246 70.5586 137.133 70.0586 136.906 69.6836C136.68 69.3008 136.355 69.0195 135.934 68.8398C135.512 68.6602 135.012 68.5703 134.434 68.5703H132.629ZM146.41 66.0039H148.215C148.793 66.0039 149.27 65.9062 149.645 65.7109C150.02 65.5078 150.297 65.2266 150.477 64.8672C150.664 64.5 150.758 64.0742 150.758 63.5898C150.758 63.1523 150.672 62.7656 150.5 62.4297C150.336 62.0859 150.082 61.8203 149.738 61.6328C149.395 61.4375 148.961 61.3398 148.438 61.3398C148.023 61.3398 147.641 61.4219 147.289 61.5859C146.938 61.75 146.656 61.9805 146.445 62.2773C146.234 62.5742 146.129 62.9336 146.129 63.3555H142.742C142.742 62.418 142.992 61.6016 143.492 60.9062C144 60.2109 144.68 59.668 145.531 59.2773C146.383 58.8867 147.32 58.6914 148.344 58.6914C149.5 58.6914 150.512 58.8789 151.379 59.2539C152.246 59.6211 152.922 60.1641 153.406 60.8828C153.891 61.6016 154.133 62.4922 154.133 63.5547C154.133 64.0938 154.008 64.6172 153.758 65.125C153.508 65.625 153.148 66.0781 152.68 66.4844C152.219 66.8828 151.656 67.2031 150.992 67.4453C150.328 67.6797 149.582 67.7969 148.754 67.7969H146.41V66.0039ZM146.41 68.5703V66.8242H148.754C149.684 66.8242 150.5 66.9297 151.203 67.1406C151.906 67.3516 152.496 67.6562 152.973 68.0547C153.449 68.4453 153.809 68.9102 154.051 69.4492C154.293 69.9805 154.414 70.5703 154.414 71.2188C154.414 72.0156 154.262 72.7266 153.957 73.3516C153.652 73.9688 153.223 74.4922 152.668 74.9219C152.121 75.3516 151.48 75.6797 150.746 75.9062C150.012 76.125 149.211 76.2344 148.344 76.2344C147.625 76.2344 146.918 76.1367 146.223 75.9414C145.535 75.7383 144.91 75.4375 144.348 75.0391C143.793 74.6328 143.348 74.125 143.012 73.5156C142.684 72.8984 142.52 72.168 142.52 71.3242H145.906C145.906 71.7617 146.016 72.1523 146.234 72.4961C146.453 72.8398 146.754 73.1094 147.137 73.3047C147.527 73.5 147.961 73.5977 148.438 73.5977C148.977 73.5977 149.438 73.5 149.82 73.3047C150.211 73.1016 150.508 72.8203 150.711 72.4609C150.922 72.0938 151.027 71.668 151.027 71.1836C151.027 70.5586 150.914 70.0586 150.688 69.6836C150.461 69.3008 150.137 69.0195 149.715 68.8398C149.293 68.6602 148.793 68.5703 148.215 68.5703H146.41ZM168.219 65.9688V68.9219C168.219 70.2031 168.082 71.3086 167.809 72.2383C167.535 73.1602 167.141 73.918 166.625 74.5117C166.117 75.0977 165.512 75.5312 164.809 75.8125C164.105 76.0938 163.324 76.2344 162.465 76.2344C161.777 76.2344 161.137 76.1484 160.543 75.9766C159.949 75.7969 159.414 75.5195 158.938 75.1445C158.469 74.7695 158.062 74.2969 157.719 73.7266C157.383 73.1484 157.125 72.4609 156.945 71.6641C156.766 70.8672 156.676 69.9531 156.676 68.9219V65.9688C156.676 64.6875 156.812 63.5898 157.086 62.6758C157.367 61.7539 157.762 61 158.27 60.4141C158.785 59.8281 159.395 59.3984 160.098 59.125C160.801 58.8438 161.582 58.7031 162.441 58.7031C163.129 58.7031 163.766 58.793 164.352 58.9727C164.945 59.1445 165.48 59.4141 165.957 59.7812C166.434 60.1484 166.84 60.6211 167.176 61.1992C167.512 61.7695 167.77 62.4531 167.949 63.25C168.129 64.0391 168.219 64.9453 168.219 65.9688ZM164.832 69.3672V65.5117C164.832 64.8945 164.797 64.3555 164.727 63.8945C164.664 63.4336 164.566 63.043 164.434 62.7227C164.301 62.3945 164.137 62.1289 163.941 61.9258C163.746 61.7227 163.523 61.5742 163.273 61.4805C163.023 61.3867 162.746 61.3398 162.441 61.3398C162.059 61.3398 161.719 61.4141 161.422 61.5625C161.133 61.7109 160.887 61.9492 160.684 62.2773C160.48 62.5977 160.324 63.0273 160.215 63.5664C160.113 64.0977 160.062 64.7461 160.062 65.5117V69.3672C160.062 69.9844 160.094 70.5273 160.156 70.9961C160.227 71.4648 160.328 71.8672 160.461 72.2031C160.602 72.5312 160.766 72.8008 160.953 73.0117C161.148 73.2148 161.371 73.3633 161.621 73.457C161.879 73.5508 162.16 73.5977 162.465 73.5977C162.84 73.5977 163.172 73.5234 163.461 73.375C163.758 73.2188 164.008 72.9766 164.211 72.6484C164.422 72.3125 164.578 71.875 164.68 71.3359C164.781 70.7969 164.832 70.1406 164.832 69.3672ZM170.844 61.9141C170.844 61.3281 170.988 60.793 171.277 60.3086C171.566 59.8164 171.953 59.4258 172.438 59.1367C172.922 58.8477 173.453 58.7031 174.031 58.7031C174.602 58.7031 175.125 58.8477 175.602 59.1367C176.078 59.4258 176.457 59.8164 176.738 60.3086C177.02 60.793 177.16 61.3281 177.16 61.9141C177.16 62.5 177.02 63.0352 176.738 63.5195C176.457 63.9961 176.078 64.375 175.602 64.6562C175.125 64.9375 174.602 65.0781 174.031 65.0781C173.453 65.0781 172.922 64.9375 172.438 64.6562C171.953 64.375 171.566 63.9961 171.277 63.5195C170.988 63.0352 170.844 62.5 170.844 61.9141ZM172.531 61.9141C172.531 62.3359 172.68 62.6875 172.977 62.9688C173.273 63.25 173.625 63.3906 174.031 63.3906C174.438 63.3906 174.777 63.25 175.051 62.9688C175.324 62.6875 175.461 62.3359 175.461 61.9141C175.461 61.4844 175.324 61.125 175.051 60.8359C174.777 60.5469 174.438 60.4023 174.031 60.4023C173.625 60.4023 173.273 60.5469 172.977 60.8359C172.68 61.125 172.531 61.4844 172.531 61.9141Z" fill="#2A3071"/>
<path d="M486.879 149.762H487.371V152.457H487.172C486.281 152.457 485.488 152.59 484.793 152.855C484.098 153.121 483.508 153.5 483.023 153.992C482.547 154.477 482.18 155.062 481.922 155.75C481.672 156.438 481.547 157.207 481.547 158.059V160.895C481.547 161.504 481.605 162.043 481.723 162.512C481.848 162.973 482.023 163.359 482.25 163.672C482.484 163.977 482.758 164.207 483.07 164.363C483.383 164.512 483.734 164.586 484.125 164.586C484.492 164.586 484.824 164.508 485.121 164.352C485.426 164.195 485.684 163.977 485.895 163.695C486.113 163.406 486.277 163.07 486.387 162.688C486.504 162.297 486.562 161.871 486.562 161.41C486.562 160.949 486.504 160.523 486.387 160.133C486.277 159.742 486.113 159.406 485.895 159.125C485.676 158.836 485.41 158.613 485.098 158.457C484.785 158.301 484.434 158.223 484.043 158.223C483.512 158.223 483.043 158.348 482.637 158.598C482.238 158.84 481.926 159.152 481.699 159.535C481.473 159.918 481.352 160.32 481.336 160.742L480.316 160.086C480.34 159.484 480.465 158.914 480.691 158.375C480.926 157.836 481.246 157.359 481.652 156.945C482.066 156.523 482.562 156.195 483.141 155.961C483.719 155.719 484.371 155.598 485.098 155.598C485.895 155.598 486.594 155.75 487.195 156.055C487.805 156.359 488.312 156.777 488.719 157.309C489.125 157.84 489.43 158.453 489.633 159.148C489.836 159.844 489.938 160.586 489.938 161.375C489.938 162.203 489.801 162.973 489.527 163.684C489.262 164.395 488.875 165.016 488.367 165.547C487.867 166.078 487.266 166.492 486.562 166.789C485.859 167.086 485.07 167.234 484.195 167.234C483.289 167.234 482.465 167.07 481.723 166.742C480.988 166.406 480.355 165.938 479.824 165.336C479.293 164.734 478.883 164.02 478.594 163.191C478.312 162.363 478.172 161.457 478.172 160.473V159.16C478.172 157.785 478.371 156.527 478.77 155.387C479.176 154.238 479.758 153.246 480.516 152.41C481.273 151.566 482.188 150.914 483.258 150.453C484.328 149.992 485.535 149.762 486.879 149.762ZM503.438 156.969V159.922C503.438 161.203 503.301 162.309 503.027 163.238C502.754 164.16 502.359 164.918 501.844 165.512C501.336 166.098 500.73 166.531 500.027 166.812C499.324 167.094 498.543 167.234 497.684 167.234C496.996 167.234 496.355 167.148 495.762 166.977C495.168 166.797 494.633 166.52 494.156 166.145C493.688 165.77 493.281 165.297 492.938 164.727C492.602 164.148 492.344 163.461 492.164 162.664C491.984 161.867 491.895 160.953 491.895 159.922V156.969C491.895 155.688 492.031 154.59 492.305 153.676C492.586 152.754 492.98 152 493.488 151.414C494.004 150.828 494.613 150.398 495.316 150.125C496.02 149.844 496.801 149.703 497.66 149.703C498.348 149.703 498.984 149.793 499.57 149.973C500.164 150.145 500.699 150.414 501.176 150.781C501.652 151.148 502.059 151.621 502.395 152.199C502.73 152.77 502.988 153.453 503.168 154.25C503.348 155.039 503.438 155.945 503.438 156.969ZM500.051 160.367V156.512C500.051 155.895 500.016 155.355 499.945 154.895C499.883 154.434 499.785 154.043 499.652 153.723C499.52 153.395 499.355 153.129 499.16 152.926C498.965 152.723 498.742 152.574 498.492 152.48C498.242 152.387 497.965 152.34 497.66 152.34C497.277 152.34 496.938 152.414 496.641 152.562C496.352 152.711 496.105 152.949 495.902 153.277C495.699 153.598 495.543 154.027 495.434 154.566C495.332 155.098 495.281 155.746 495.281 156.512V160.367C495.281 160.984 495.312 161.527 495.375 161.996C495.445 162.465 495.547 162.867 495.68 163.203C495.82 163.531 495.984 163.801 496.172 164.012C496.367 164.215 496.59 164.363 496.84 164.457C497.098 164.551 497.379 164.598 497.684 164.598C498.059 164.598 498.391 164.523 498.68 164.375C498.977 164.219 499.227 163.977 499.43 163.648C499.641 163.312 499.797 162.875 499.898 162.336C500 161.797 500.051 161.141 500.051 160.367ZM506.062 152.914C506.062 152.328 506.207 151.793 506.496 151.309C506.785 150.816 507.172 150.426 507.656 150.137C508.141 149.848 508.672 149.703 509.25 149.703C509.82 149.703 510.344 149.848 510.82 150.137C511.297 150.426 511.676 150.816 511.957 151.309C512.238 151.793 512.379 152.328 512.379 152.914C512.379 153.5 512.238 154.035 511.957 154.52C511.676 154.996 511.297 155.375 510.82 155.656C510.344 155.938 509.82 156.078 509.25 156.078C508.672 156.078 508.141 155.938 507.656 155.656C507.172 155.375 506.785 154.996 506.496 154.52C506.207 154.035 506.062 153.5 506.062 152.914ZM507.75 152.914C507.75 153.336 507.898 153.688 508.195 153.969C508.492 154.25 508.844 154.391 509.25 154.391C509.656 154.391 509.996 154.25 510.27 153.969C510.543 153.688 510.68 153.336 510.68 152.914C510.68 152.484 510.543 152.125 510.27 151.836C509.996 151.547 509.656 151.402 509.25 151.402C508.844 151.402 508.492 151.547 508.195 151.836C507.898 152.125 507.75 152.484 507.75 152.914Z" fill="#2A3071"/>
<circle cx="277" cy="279" r="5" fill="#2A3071"/>
</svg>
