<svg width="547" height="516" viewBox="0 0 547 516" fill="none" xmlns="http://www.w3.org/2000/svg">
<circle cx="281" cy="258" r="198.5" stroke="#2A3071" stroke-width="3"/>
<rect x="278" y="458" width="5" height="25" fill="#2A3071"/>
<rect x="278" y="33" width="5" height="25" fill="#2A3071"/>
<rect x="382.732" y="85.9277" width="5" height="25" transform="rotate(-150 382.732 85.9277)" fill="#2A3071"/>
<rect x="170.165" y="454.105" width="5" height="25" transform="rotate(-150 170.165 454.105)" fill="#2A3071"/>
<rect x="86.8945" y="372.665" width="5" height="25" transform="rotate(-120 86.8945 372.665)" fill="#2A3071"/>
<rect x="454.895" y="160.2" width="5" height="25" transform="rotate(-120 454.895 160.2)" fill="#2A3071"/>
<rect x="481" y="260" width="5" height="25" transform="rotate(-90 481 260)" fill="#2A3071"/>
<rect x="56" y="260" width="5" height="25" transform="rotate(-90 56 260)" fill="#2A3071"/>
<rect x="84.3945" y="147.665" width="5" height="25" transform="rotate(-60 84.3945 147.665)" fill="#2A3071"/>
<rect x="453.593" y="360.822" width="5" height="25" transform="rotate(-60 453.593 360.822)" fill="#2A3071"/>
<rect x="376" y="433.5" width="5" height="25" transform="rotate(-30 376 433.5)" fill="#2A3071"/>
<rect x="165.835" y="64.3945" width="5" height="25" transform="rotate(-30 165.835 64.3945)" fill="#2A3071"/>
<path d="M391.629 45.0039H393.434C394.012 45.0039 394.488 44.9062 394.863 44.7109C395.238 44.5078 395.516 44.2266 395.695 43.8672C395.883 43.5 395.977 43.0742 395.977 42.5898C395.977 42.1523 395.891 41.7656 395.719 41.4297C395.555 41.0859 395.301 40.8203 394.957 40.6328C394.613 40.4375 394.18 40.3398 393.656 40.3398C393.242 40.3398 392.859 40.4219 392.508 40.5859C392.156 40.75 391.875 40.9805 391.664 41.2773C391.453 41.5742 391.348 41.9336 391.348 42.3555H387.961C387.961 41.418 388.211 40.6016 388.711 39.9062C389.219 39.2109 389.898 38.668 390.75 38.2773C391.602 37.8867 392.539 37.6914 393.562 37.6914C394.719 37.6914 395.73 37.8789 396.598 38.2539C397.465 38.6211 398.141 39.1641 398.625 39.8828C399.109 40.6016 399.352 41.4922 399.352 42.5547C399.352 43.0938 399.227 43.6172 398.977 44.125C398.727 44.625 398.367 45.0781 397.898 45.4844C397.438 45.8828 396.875 46.2031 396.211 46.4453C395.547 46.6797 394.801 46.7969 393.973 46.7969H391.629V45.0039ZM391.629 47.5703V45.8242H393.973C394.902 45.8242 395.719 45.9297 396.422 46.1406C397.125 46.3516 397.715 46.6562 398.191 47.0547C398.668 47.4453 399.027 47.9102 399.27 48.4492C399.512 48.9805 399.633 49.5703 399.633 50.2188C399.633 51.0156 399.48 51.7266 399.176 52.3516C398.871 52.9688 398.441 53.4922 397.887 53.9219C397.34 54.3516 396.699 54.6797 395.965 54.9062C395.23 55.125 394.43 55.2344 393.562 55.2344C392.844 55.2344 392.137 55.1367 391.441 54.9414C390.754 54.7383 390.129 54.4375 389.566 54.0391C389.012 53.6328 388.566 53.125 388.23 52.5156C387.902 51.8984 387.738 51.168 387.738 50.3242H391.125C391.125 50.7617 391.234 51.1523 391.453 51.4961C391.672 51.8398 391.973 52.1094 392.355 52.3047C392.746 52.5 393.18 52.5977 393.656 52.5977C394.195 52.5977 394.656 52.5 395.039 52.3047C395.43 52.1016 395.727 51.8203 395.93 51.4609C396.141 51.0938 396.246 50.668 396.246 50.1836C396.246 49.5586 396.133 49.0586 395.906 48.6836C395.68 48.3008 395.355 48.0195 394.934 47.8398C394.512 47.6602 394.012 47.5703 393.434 47.5703H391.629ZM413.438 44.9688V47.9219C413.438 49.2031 413.301 50.3086 413.027 51.2383C412.754 52.1602 412.359 52.918 411.844 53.5117C411.336 54.0977 410.73 54.5312 410.027 54.8125C409.324 55.0938 408.543 55.2344 407.684 55.2344C406.996 55.2344 406.355 55.1484 405.762 54.9766C405.168 54.7969 404.633 54.5195 404.156 54.1445C403.688 53.7695 403.281 53.2969 402.938 52.7266C402.602 52.1484 402.344 51.4609 402.164 50.6641C401.984 49.8672 401.895 48.9531 401.895 47.9219V44.9688C401.895 43.6875 402.031 42.5898 402.305 41.6758C402.586 40.7539 402.98 40 403.488 39.4141C404.004 38.8281 404.613 38.3984 405.316 38.125C406.02 37.8438 406.801 37.7031 407.66 37.7031C408.348 37.7031 408.984 37.793 409.57 37.9727C410.164 38.1445 410.699 38.4141 411.176 38.7812C411.652 39.1484 412.059 39.6211 412.395 40.1992C412.73 40.7695 412.988 41.4531 413.168 42.25C413.348 43.0391 413.438 43.9453 413.438 44.9688ZM410.051 48.3672V44.5117C410.051 43.8945 410.016 43.3555 409.945 42.8945C409.883 42.4336 409.785 42.043 409.652 41.7227C409.52 41.3945 409.355 41.1289 409.16 40.9258C408.965 40.7227 408.742 40.5742 408.492 40.4805C408.242 40.3867 407.965 40.3398 407.66 40.3398C407.277 40.3398 406.938 40.4141 406.641 40.5625C406.352 40.7109 406.105 40.9492 405.902 41.2773C405.699 41.5977 405.543 42.0273 405.434 42.5664C405.332 43.0977 405.281 43.7461 405.281 44.5117V48.3672C405.281 48.9844 405.312 49.5273 405.375 49.9961C405.445 50.4648 405.547 50.8672 405.68 51.2031C405.82 51.5312 405.984 51.8008 406.172 52.0117C406.367 52.2148 406.59 52.3633 406.84 52.457C407.098 52.5508 407.379 52.5977 407.684 52.5977C408.059 52.5977 408.391 52.5234 408.68 52.375C408.977 52.2188 409.227 51.9766 409.43 51.6484C409.641 51.3125 409.797 50.875 409.898 50.3359C410 49.7969 410.051 49.1406 410.051 48.3672ZM416.062 40.9141C416.062 40.3281 416.207 39.793 416.496 39.3086C416.785 38.8164 417.172 38.4258 417.656 38.1367C418.141 37.8477 418.672 37.7031 419.25 37.7031C419.82 37.7031 420.344 37.8477 420.82 38.1367C421.297 38.4258 421.676 38.8164 421.957 39.3086C422.238 39.793 422.379 40.3281 422.379 40.9141C422.379 41.5 422.238 42.0352 421.957 42.5195C421.676 42.9961 421.297 43.375 420.82 43.6562C420.344 43.9375 419.82 44.0781 419.25 44.0781C418.672 44.0781 418.141 43.9375 417.656 43.6562C417.172 43.375 416.785 42.9961 416.496 42.5195C416.207 42.0352 416.062 41.5 416.062 40.9141ZM417.75 40.9141C417.75 41.3359 417.898 41.6875 418.195 41.9688C418.492 42.25 418.844 42.3906 419.25 42.3906C419.656 42.3906 419.996 42.25 420.27 41.9688C420.543 41.6875 420.68 41.3359 420.68 40.9141C420.68 40.4844 420.543 40.125 420.27 39.8359C419.996 39.5469 419.656 39.4023 419.25 39.4023C418.844 39.4023 418.492 39.5469 418.195 39.8359C417.898 40.125 417.75 40.4844 417.75 40.9141Z" fill="#2A3071"/>
<path d="M281.656 11.9688V14.9219C281.656 16.2031 281.52 17.3086 281.246 18.2383C280.973 19.1602 280.578 19.918 280.062 20.5117C279.555 21.0977 278.949 21.5312 278.246 21.8125C277.543 22.0938 276.762 22.2344 275.902 22.2344C275.215 22.2344 274.574 22.1484 273.98 21.9766C273.387 21.7969 272.852 21.5195 272.375 21.1445C271.906 20.7695 271.5 20.2969 271.156 19.7266C270.82 19.1484 270.562 18.4609 270.383 17.6641C270.203 16.8672 270.113 15.9531 270.113 14.9219V11.9688C270.113 10.6875 270.25 9.58984 270.523 8.67578C270.805 7.75391 271.199 7 271.707 6.41406C272.223 5.82812 272.832 5.39844 273.535 5.125C274.238 4.84375 275.02 4.70312 275.879 4.70312C276.566 4.70312 277.203 4.79297 277.789 4.97266C278.383 5.14453 278.918 5.41406 279.395 5.78125C279.871 6.14844 280.277 6.62109 280.613 7.19922C280.949 7.76953 281.207 8.45312 281.387 9.25C281.566 10.0391 281.656 10.9453 281.656 11.9688ZM278.27 15.3672V11.5117C278.27 10.8945 278.234 10.3555 278.164 9.89453C278.102 9.43359 278.004 9.04297 277.871 8.72266C277.738 8.39453 277.574 8.12891 277.379 7.92578C277.184 7.72266 276.961 7.57422 276.711 7.48047C276.461 7.38672 276.184 7.33984 275.879 7.33984C275.496 7.33984 275.156 7.41406 274.859 7.5625C274.57 7.71094 274.324 7.94922 274.121 8.27734C273.918 8.59766 273.762 9.02734 273.652 9.56641C273.551 10.0977 273.5 10.7461 273.5 11.5117V15.3672C273.5 15.9844 273.531 16.5273 273.594 16.9961C273.664 17.4648 273.766 17.8672 273.898 18.2031C274.039 18.5312 274.203 18.8008 274.391 19.0117C274.586 19.2148 274.809 19.3633 275.059 19.457C275.316 19.5508 275.598 19.5977 275.902 19.5977C276.277 19.5977 276.609 19.5234 276.898 19.375C277.195 19.2188 277.445 18.9766 277.648 18.6484C277.859 18.3125 278.016 17.875 278.117 17.3359C278.219 16.7969 278.27 16.1406 278.27 15.3672ZM284.281 7.91406C284.281 7.32812 284.426 6.79297 284.715 6.30859C285.004 5.81641 285.391 5.42578 285.875 5.13672C286.359 4.84766 286.891 4.70312 287.469 4.70312C288.039 4.70312 288.562 4.84766 289.039 5.13672C289.516 5.42578 289.895 5.81641 290.176 6.30859C290.457 6.79297 290.598 7.32812 290.598 7.91406C290.598 8.5 290.457 9.03516 290.176 9.51953C289.895 9.99609 289.516 10.375 289.039 10.6562C288.562 10.9375 288.039 11.0781 287.469 11.0781C286.891 11.0781 286.359 10.9375 285.875 10.6562C285.391 10.375 285.004 9.99609 284.715 9.51953C284.426 9.03516 284.281 8.5 284.281 7.91406ZM285.969 7.91406C285.969 8.33594 286.117 8.6875 286.414 8.96875C286.711 9.25 287.062 9.39062 287.469 9.39062C287.875 9.39062 288.215 9.25 288.488 8.96875C288.762 8.6875 288.898 8.33594 288.898 7.91406C288.898 7.48437 288.762 7.125 288.488 6.83594C288.215 6.54687 287.875 6.40234 287.469 6.40234C287.062 6.40234 286.711 6.54687 286.414 6.83594C286.117 7.125 285.969 7.48437 285.969 7.91406Z" fill="#2A3071"/>
<path d="M490.398 363.902V381H487.023V367.793L482.969 369.082V366.422L490.035 363.902H490.398ZM507.625 378.363V381H495.953V378.75L501.473 372.832C502.027 372.215 502.465 371.672 502.785 371.203C503.105 370.727 503.336 370.301 503.477 369.926C503.625 369.543 503.699 369.18 503.699 368.836C503.699 368.32 503.613 367.879 503.441 367.512C503.27 367.137 503.016 366.848 502.68 366.645C502.352 366.441 501.945 366.34 501.461 366.34C500.945 366.34 500.5 366.465 500.125 366.715C499.758 366.965 499.477 367.312 499.281 367.758C499.094 368.203 499 368.707 499 369.27H495.613C495.613 368.254 495.855 367.324 496.34 366.48C496.824 365.629 497.508 364.953 498.391 364.453C499.273 363.945 500.32 363.691 501.531 363.691C502.727 363.691 503.734 363.887 504.555 364.277C505.383 364.66 506.008 365.215 506.43 365.941C506.859 366.66 507.074 367.52 507.074 368.52C507.074 369.082 506.984 369.633 506.805 370.172C506.625 370.703 506.367 371.234 506.031 371.766C505.703 372.289 505.305 372.82 504.836 373.359C504.367 373.898 503.848 374.457 503.277 375.035L500.312 378.363H507.625ZM521.219 370.969V373.922C521.219 375.203 521.082 376.309 520.809 377.238C520.535 378.16 520.141 378.918 519.625 379.512C519.117 380.098 518.512 380.531 517.809 380.812C517.105 381.094 516.324 381.234 515.465 381.234C514.777 381.234 514.137 381.148 513.543 380.977C512.949 380.797 512.414 380.52 511.938 380.145C511.469 379.77 511.062 379.297 510.719 378.727C510.383 378.148 510.125 377.461 509.945 376.664C509.766 375.867 509.676 374.953 509.676 373.922V370.969C509.676 369.688 509.812 368.59 510.086 367.676C510.367 366.754 510.762 366 511.27 365.414C511.785 364.828 512.395 364.398 513.098 364.125C513.801 363.844 514.582 363.703 515.441 363.703C516.129 363.703 516.766 363.793 517.352 363.973C517.945 364.145 518.48 364.414 518.957 364.781C519.434 365.148 519.84 365.621 520.176 366.199C520.512 366.77 520.77 367.453 520.949 368.25C521.129 369.039 521.219 369.945 521.219 370.969ZM517.832 374.367V370.512C517.832 369.895 517.797 369.355 517.727 368.895C517.664 368.434 517.566 368.043 517.434 367.723C517.301 367.395 517.137 367.129 516.941 366.926C516.746 366.723 516.523 366.574 516.273 366.48C516.023 366.387 515.746 366.34 515.441 366.34C515.059 366.34 514.719 366.414 514.422 366.562C514.133 366.711 513.887 366.949 513.684 367.277C513.48 367.598 513.324 368.027 513.215 368.566C513.113 369.098 513.062 369.746 513.062 370.512V374.367C513.062 374.984 513.094 375.527 513.156 375.996C513.227 376.465 513.328 376.867 513.461 377.203C513.602 377.531 513.766 377.801 513.953 378.012C514.148 378.215 514.371 378.363 514.621 378.457C514.879 378.551 515.16 378.598 515.465 378.598C515.84 378.598 516.172 378.523 516.461 378.375C516.758 378.219 517.008 377.977 517.211 377.648C517.422 377.312 517.578 376.875 517.68 376.336C517.781 375.797 517.832 375.141 517.832 374.367ZM523.844 366.914C523.844 366.328 523.988 365.793 524.277 365.309C524.566 364.816 524.953 364.426 525.438 364.137C525.922 363.848 526.453 363.703 527.031 363.703C527.602 363.703 528.125 363.848 528.602 364.137C529.078 364.426 529.457 364.816 529.738 365.309C530.02 365.793 530.16 366.328 530.16 366.914C530.16 367.5 530.02 368.035 529.738 368.52C529.457 368.996 529.078 369.375 528.602 369.656C528.125 369.938 527.602 370.078 527.031 370.078C526.453 370.078 525.922 369.938 525.438 369.656C524.953 369.375 524.566 368.996 524.277 368.52C523.988 368.035 523.844 367.5 523.844 366.914ZM525.531 366.914C525.531 367.336 525.68 367.688 525.977 367.969C526.273 368.25 526.625 368.391 527.031 368.391C527.438 368.391 527.777 368.25 528.051 367.969C528.324 367.688 528.461 367.336 528.461 366.914C528.461 366.484 528.324 366.125 528.051 365.836C527.777 365.547 527.438 365.402 527.031 365.402C526.625 365.402 526.273 365.547 525.977 365.836C525.68 366.125 525.531 366.484 525.531 366.914Z" fill="#2A3071"/>
<path d="M396.398 459.902V477H393.023V463.793L388.969 465.082V462.422L396.035 459.902H396.398ZM405.129 469.23L402.434 468.586L403.406 459.938H412.992V462.668H406.184L405.762 466.453C405.988 466.32 406.332 466.18 406.793 466.031C407.254 465.875 407.77 465.797 408.34 465.797C409.168 465.797 409.902 465.926 410.543 466.184C411.184 466.441 411.727 466.816 412.172 467.309C412.625 467.801 412.969 468.402 413.203 469.113C413.438 469.824 413.555 470.629 413.555 471.527C413.555 472.285 413.438 473.008 413.203 473.695C412.969 474.375 412.613 474.984 412.137 475.523C411.66 476.055 411.062 476.473 410.344 476.777C409.625 477.082 408.773 477.234 407.789 477.234C407.055 477.234 406.344 477.125 405.656 476.906C404.977 476.688 404.363 476.363 403.816 475.934C403.277 475.504 402.844 474.984 402.516 474.375C402.195 473.758 402.027 473.055 402.012 472.266H405.363C405.41 472.75 405.535 473.168 405.738 473.52C405.949 473.863 406.227 474.129 406.57 474.316C406.914 474.504 407.316 474.598 407.777 474.598C408.207 474.598 408.574 474.516 408.879 474.352C409.184 474.188 409.43 473.961 409.617 473.672C409.805 473.375 409.941 473.031 410.027 472.641C410.121 472.242 410.168 471.812 410.168 471.352C410.168 470.891 410.113 470.473 410.004 470.098C409.895 469.723 409.727 469.398 409.5 469.125C409.273 468.852 408.984 468.641 408.633 468.492C408.289 468.344 407.887 468.27 407.426 468.27C406.801 468.27 406.316 468.367 405.973 468.562C405.637 468.758 405.355 468.98 405.129 469.23ZM427.219 466.969V469.922C427.219 471.203 427.082 472.309 426.809 473.238C426.535 474.16 426.141 474.918 425.625 475.512C425.117 476.098 424.512 476.531 423.809 476.812C423.105 477.094 422.324 477.234 421.465 477.234C420.777 477.234 420.137 477.148 419.543 476.977C418.949 476.797 418.414 476.52 417.938 476.145C417.469 475.77 417.062 475.297 416.719 474.727C416.383 474.148 416.125 473.461 415.945 472.664C415.766 471.867 415.676 470.953 415.676 469.922V466.969C415.676 465.688 415.812 464.59 416.086 463.676C416.367 462.754 416.762 462 417.27 461.414C417.785 460.828 418.395 460.398 419.098 460.125C419.801 459.844 420.582 459.703 421.441 459.703C422.129 459.703 422.766 459.793 423.352 459.973C423.945 460.145 424.48 460.414 424.957 460.781C425.434 461.148 425.84 461.621 426.176 462.199C426.512 462.77 426.77 463.453 426.949 464.25C427.129 465.039 427.219 465.945 427.219 466.969ZM423.832 470.367V466.512C423.832 465.895 423.797 465.355 423.727 464.895C423.664 464.434 423.566 464.043 423.434 463.723C423.301 463.395 423.137 463.129 422.941 462.926C422.746 462.723 422.523 462.574 422.273 462.48C422.023 462.387 421.746 462.34 421.441 462.34C421.059 462.34 420.719 462.414 420.422 462.562C420.133 462.711 419.887 462.949 419.684 463.277C419.48 463.598 419.324 464.027 419.215 464.566C419.113 465.098 419.062 465.746 419.062 466.512V470.367C419.062 470.984 419.094 471.527 419.156 471.996C419.227 472.465 419.328 472.867 419.461 473.203C419.602 473.531 419.766 473.801 419.953 474.012C420.148 474.215 420.371 474.363 420.621 474.457C420.879 474.551 421.16 474.598 421.465 474.598C421.84 474.598 422.172 474.523 422.461 474.375C422.758 474.219 423.008 473.977 423.211 473.648C423.422 473.312 423.578 472.875 423.68 472.336C423.781 471.797 423.832 471.141 423.832 470.367ZM429.844 462.914C429.844 462.328 429.988 461.793 430.277 461.309C430.566 460.816 430.953 460.426 431.438 460.137C431.922 459.848 432.453 459.703 433.031 459.703C433.602 459.703 434.125 459.848 434.602 460.137C435.078 460.426 435.457 460.816 435.738 461.309C436.02 461.793 436.16 462.328 436.16 462.914C436.16 463.5 436.02 464.035 435.738 464.52C435.457 464.996 435.078 465.375 434.602 465.656C434.125 465.938 433.602 466.078 433.031 466.078C432.453 466.078 431.922 465.938 431.438 465.656C430.953 465.375 430.566 464.996 430.277 464.52C429.988 464.035 429.844 463.5 429.844 462.914ZM431.531 462.914C431.531 463.336 431.68 463.688 431.977 463.969C432.273 464.25 432.625 464.391 433.031 464.391C433.438 464.391 433.777 464.25 434.051 463.969C434.324 463.688 434.461 463.336 434.461 462.914C434.461 462.484 434.324 462.125 434.051 461.836C433.777 461.547 433.438 461.402 433.031 461.402C432.625 461.402 432.273 461.547 431.977 461.836C431.68 462.125 431.531 462.484 431.531 462.914Z" fill="#2A3071"/>
<path d="M264.398 492.902V510H261.023V496.793L256.969 498.082V495.422L264.035 492.902H264.398ZM281.449 505.324C281.449 506.395 281.199 507.297 280.699 508.031C280.199 508.758 279.512 509.309 278.637 509.684C277.77 510.051 276.785 510.234 275.684 510.234C274.582 510.234 273.594 510.051 272.719 509.684C271.844 509.309 271.152 508.758 270.645 508.031C270.137 507.297 269.883 506.395 269.883 505.324C269.883 504.605 270.027 503.957 270.316 503.379C270.605 502.793 271.008 502.293 271.523 501.879C272.047 501.457 272.66 501.137 273.363 500.918C274.066 500.691 274.832 500.578 275.66 500.578C276.77 500.578 277.762 500.773 278.637 501.164C279.512 501.555 280.199 502.105 280.699 502.816C281.199 503.527 281.449 504.363 281.449 505.324ZM278.051 505.102C278.051 504.578 277.949 504.129 277.746 503.754C277.551 503.371 277.273 503.078 276.914 502.875C276.555 502.672 276.137 502.57 275.66 502.57C275.184 502.57 274.766 502.672 274.406 502.875C274.047 503.078 273.766 503.371 273.562 503.754C273.367 504.129 273.27 504.578 273.27 505.102C273.27 505.617 273.367 506.062 273.562 506.438C273.766 506.812 274.047 507.102 274.406 507.305C274.773 507.5 275.199 507.598 275.684 507.598C276.168 507.598 276.586 507.5 276.938 507.305C277.297 507.102 277.57 506.812 277.758 506.438C277.953 506.062 278.051 505.617 278.051 505.102ZM281.086 497.461C281.086 498.328 280.855 499.098 280.395 499.77C279.934 500.434 279.293 500.953 278.473 501.328C277.66 501.703 276.73 501.891 275.684 501.891C274.629 501.891 273.691 501.703 272.871 501.328C272.051 500.953 271.41 500.434 270.949 499.77C270.488 499.098 270.258 498.328 270.258 497.461C270.258 496.43 270.488 495.562 270.949 494.859C271.418 494.148 272.059 493.609 272.871 493.242C273.691 492.875 274.621 492.691 275.66 492.691C276.715 492.691 277.648 492.875 278.461 493.242C279.281 493.609 279.922 494.148 280.383 494.859C280.852 495.562 281.086 496.43 281.086 497.461ZM277.711 497.613C277.711 497.152 277.629 496.754 277.465 496.418C277.301 496.074 277.066 495.809 276.762 495.621C276.465 495.434 276.098 495.34 275.66 495.34C275.238 495.34 274.875 495.43 274.57 495.609C274.273 495.789 274.043 496.051 273.879 496.395C273.723 496.73 273.645 497.137 273.645 497.613C273.645 498.074 273.723 498.48 273.879 498.832C274.043 499.176 274.277 499.445 274.582 499.641C274.887 499.836 275.254 499.934 275.684 499.934C276.113 499.934 276.477 499.836 276.773 499.641C277.078 499.445 277.309 499.176 277.465 498.832C277.629 498.48 277.711 498.074 277.711 497.613ZM295.219 499.969V502.922C295.219 504.203 295.082 505.309 294.809 506.238C294.535 507.16 294.141 507.918 293.625 508.512C293.117 509.098 292.512 509.531 291.809 509.812C291.105 510.094 290.324 510.234 289.465 510.234C288.777 510.234 288.137 510.148 287.543 509.977C286.949 509.797 286.414 509.52 285.938 509.145C285.469 508.77 285.062 508.297 284.719 507.727C284.383 507.148 284.125 506.461 283.945 505.664C283.766 504.867 283.676 503.953 283.676 502.922V499.969C283.676 498.688 283.812 497.59 284.086 496.676C284.367 495.754 284.762 495 285.27 494.414C285.785 493.828 286.395 493.398 287.098 493.125C287.801 492.844 288.582 492.703 289.441 492.703C290.129 492.703 290.766 492.793 291.352 492.973C291.945 493.145 292.48 493.414 292.957 493.781C293.434 494.148 293.84 494.621 294.176 495.199C294.512 495.77 294.77 496.453 294.949 497.25C295.129 498.039 295.219 498.945 295.219 499.969ZM291.832 503.367V499.512C291.832 498.895 291.797 498.355 291.727 497.895C291.664 497.434 291.566 497.043 291.434 496.723C291.301 496.395 291.137 496.129 290.941 495.926C290.746 495.723 290.523 495.574 290.273 495.48C290.023 495.387 289.746 495.34 289.441 495.34C289.059 495.34 288.719 495.414 288.422 495.562C288.133 495.711 287.887 495.949 287.684 496.277C287.48 496.598 287.324 497.027 287.215 497.566C287.113 498.098 287.062 498.746 287.062 499.512V503.367C287.062 503.984 287.094 504.527 287.156 504.996C287.227 505.465 287.328 505.867 287.461 506.203C287.602 506.531 287.766 506.801 287.953 507.012C288.148 507.215 288.371 507.363 288.621 507.457C288.879 507.551 289.16 507.598 289.465 507.598C289.84 507.598 290.172 507.523 290.461 507.375C290.758 507.219 291.008 506.977 291.211 506.648C291.422 506.312 291.578 505.875 291.68 505.336C291.781 504.797 291.832 504.141 291.832 503.367ZM297.844 495.914C297.844 495.328 297.988 494.793 298.277 494.309C298.566 493.816 298.953 493.426 299.438 493.137C299.922 492.848 300.453 492.703 301.031 492.703C301.602 492.703 302.125 492.848 302.602 493.137C303.078 493.426 303.457 493.816 303.738 494.309C304.02 494.793 304.16 495.328 304.16 495.914C304.16 496.5 304.02 497.035 303.738 497.52C303.457 497.996 303.078 498.375 302.602 498.656C302.125 498.938 301.602 499.078 301.031 499.078C300.453 499.078 299.922 498.938 299.438 498.656C298.953 498.375 298.566 497.996 298.277 497.52C297.988 497.035 297.844 496.5 297.844 495.914ZM299.531 495.914C299.531 496.336 299.68 496.688 299.977 496.969C300.273 497.25 300.625 497.391 301.031 497.391C301.438 497.391 301.777 497.25 302.051 496.969C302.324 496.688 302.461 496.336 302.461 495.914C302.461 495.484 302.324 495.125 302.051 494.836C301.777 494.547 301.438 494.402 301.031 494.402C300.625 494.402 300.273 494.547 299.977 494.836C299.68 495.125 299.531 495.484 299.531 495.914Z" fill="#2A3071"/>
<path d="M144.844 474.363V477H133.172V474.75L138.691 468.832C139.246 468.215 139.684 467.672 140.004 467.203C140.324 466.727 140.555 466.301 140.695 465.926C140.844 465.543 140.918 465.18 140.918 464.836C140.918 464.32 140.832 463.879 140.66 463.512C140.488 463.137 140.234 462.848 139.898 462.645C139.57 462.441 139.164 462.34 138.68 462.34C138.164 462.34 137.719 462.465 137.344 462.715C136.977 462.965 136.695 463.312 136.5 463.758C136.312 464.203 136.219 464.707 136.219 465.27H132.832C132.832 464.254 133.074 463.324 133.559 462.48C134.043 461.629 134.727 460.953 135.609 460.453C136.492 459.945 137.539 459.691 138.75 459.691C139.945 459.691 140.953 459.887 141.773 460.277C142.602 460.66 143.227 461.215 143.648 461.941C144.078 462.66 144.293 463.52 144.293 464.52C144.293 465.082 144.203 465.633 144.023 466.172C143.844 466.703 143.586 467.234 143.25 467.766C142.922 468.289 142.523 468.82 142.055 469.359C141.586 469.898 141.066 470.457 140.496 471.035L137.531 474.363H144.844ZM155.18 459.902V477H151.805V463.793L147.75 465.082V462.422L154.816 459.902H155.18ZM172.219 466.969V469.922C172.219 471.203 172.082 472.309 171.809 473.238C171.535 474.16 171.141 474.918 170.625 475.512C170.117 476.098 169.512 476.531 168.809 476.812C168.105 477.094 167.324 477.234 166.465 477.234C165.777 477.234 165.137 477.148 164.543 476.977C163.949 476.797 163.414 476.52 162.938 476.145C162.469 475.77 162.062 475.297 161.719 474.727C161.383 474.148 161.125 473.461 160.945 472.664C160.766 471.867 160.676 470.953 160.676 469.922V466.969C160.676 465.688 160.812 464.59 161.086 463.676C161.367 462.754 161.762 462 162.27 461.414C162.785 460.828 163.395 460.398 164.098 460.125C164.801 459.844 165.582 459.703 166.441 459.703C167.129 459.703 167.766 459.793 168.352 459.973C168.945 460.145 169.48 460.414 169.957 460.781C170.434 461.148 170.84 461.621 171.176 462.199C171.512 462.77 171.77 463.453 171.949 464.25C172.129 465.039 172.219 465.945 172.219 466.969ZM168.832 470.367V466.512C168.832 465.895 168.797 465.355 168.727 464.895C168.664 464.434 168.566 464.043 168.434 463.723C168.301 463.395 168.137 463.129 167.941 462.926C167.746 462.723 167.523 462.574 167.273 462.48C167.023 462.387 166.746 462.34 166.441 462.34C166.059 462.34 165.719 462.414 165.422 462.562C165.133 462.711 164.887 462.949 164.684 463.277C164.48 463.598 164.324 464.027 164.215 464.566C164.113 465.098 164.062 465.746 164.062 466.512V470.367C164.062 470.984 164.094 471.527 164.156 471.996C164.227 472.465 164.328 472.867 164.461 473.203C164.602 473.531 164.766 473.801 164.953 474.012C165.148 474.215 165.371 474.363 165.621 474.457C165.879 474.551 166.16 474.598 166.465 474.598C166.84 474.598 167.172 474.523 167.461 474.375C167.758 474.219 168.008 473.977 168.211 473.648C168.422 473.312 168.578 472.875 168.68 472.336C168.781 471.797 168.832 471.141 168.832 470.367ZM174.844 462.914C174.844 462.328 174.988 461.793 175.277 461.309C175.566 460.816 175.953 460.426 176.438 460.137C176.922 459.848 177.453 459.703 178.031 459.703C178.602 459.703 179.125 459.848 179.602 460.137C180.078 460.426 180.457 460.816 180.738 461.309C181.02 461.793 181.16 462.328 181.16 462.914C181.16 463.5 181.02 464.035 180.738 464.52C180.457 464.996 180.078 465.375 179.602 465.656C179.125 465.938 178.602 466.078 178.031 466.078C177.453 466.078 176.922 465.938 176.438 465.656C175.953 465.375 175.566 464.996 175.277 464.52C174.988 464.035 174.844 463.5 174.844 462.914ZM176.531 462.914C176.531 463.336 176.68 463.688 176.977 463.969C177.273 464.25 177.625 464.391 178.031 464.391C178.438 464.391 178.777 464.25 179.051 463.969C179.324 463.688 179.461 463.336 179.461 462.914C179.461 462.484 179.324 462.125 179.051 461.836C178.777 461.547 178.438 461.402 178.031 461.402C177.625 461.402 177.273 461.547 176.977 461.836C176.68 462.125 176.531 462.484 176.531 462.914Z" fill="#2A3071"/>
<path d="M45.8438 378.363V381H34.1719V378.75L39.6914 372.832C40.2461 372.215 40.6836 371.672 41.0039 371.203C41.3242 370.727 41.5547 370.301 41.6953 369.926C41.8438 369.543 41.918 369.18 41.918 368.836C41.918 368.32 41.832 367.879 41.6602 367.512C41.4883 367.137 41.2344 366.848 40.8984 366.645C40.5703 366.441 40.1641 366.34 39.6797 366.34C39.1641 366.34 38.7188 366.465 38.3438 366.715C37.9766 366.965 37.6953 367.312 37.5 367.758C37.3125 368.203 37.2188 368.707 37.2188 369.27H33.832C33.832 368.254 34.0742 367.324 34.5586 366.48C35.043 365.629 35.7266 364.953 36.6094 364.453C37.4922 363.945 38.5391 363.691 39.75 363.691C40.9453 363.691 41.9531 363.887 42.7734 364.277C43.6016 364.66 44.2266 365.215 44.6484 365.941C45.0781 366.66 45.293 367.52 45.293 368.52C45.293 369.082 45.2031 369.633 45.0234 370.172C44.8438 370.703 44.5859 371.234 44.25 371.766C43.9219 372.289 43.5234 372.82 43.0547 373.359C42.5859 373.898 42.0664 374.457 41.4961 375.035L38.5312 378.363H45.8438ZM59.9062 374.625V377.273H47.6133L47.4492 375.223L54.5625 363.938H57.2461L54.3398 368.801L50.8008 374.625H59.9062ZM57.9727 363.938V381H54.5977V363.938H57.9727ZM73.2188 370.969V373.922C73.2188 375.203 73.082 376.309 72.8086 377.238C72.5352 378.16 72.1406 378.918 71.625 379.512C71.1172 380.098 70.5117 380.531 69.8086 380.812C69.1055 381.094 68.3242 381.234 67.4648 381.234C66.7773 381.234 66.1367 381.148 65.543 380.977C64.9492 380.797 64.4141 380.52 63.9375 380.145C63.4688 379.77 63.0625 379.297 62.7188 378.727C62.3828 378.148 62.125 377.461 61.9453 376.664C61.7656 375.867 61.6758 374.953 61.6758 373.922V370.969C61.6758 369.688 61.8125 368.59 62.0859 367.676C62.3672 366.754 62.7617 366 63.2695 365.414C63.7852 364.828 64.3945 364.398 65.0977 364.125C65.8008 363.844 66.582 363.703 67.4414 363.703C68.1289 363.703 68.7656 363.793 69.3516 363.973C69.9453 364.145 70.4805 364.414 70.957 364.781C71.4336 365.148 71.8398 365.621 72.1758 366.199C72.5117 366.77 72.7695 367.453 72.9492 368.25C73.1289 369.039 73.2188 369.945 73.2188 370.969ZM69.832 374.367V370.512C69.832 369.895 69.7969 369.355 69.7266 368.895C69.6641 368.434 69.5664 368.043 69.4336 367.723C69.3008 367.395 69.1367 367.129 68.9414 366.926C68.7461 366.723 68.5234 366.574 68.2734 366.48C68.0234 366.387 67.7461 366.34 67.4414 366.34C67.0586 366.34 66.7188 366.414 66.4219 366.562C66.1328 366.711 65.8867 366.949 65.6836 367.277C65.4805 367.598 65.3242 368.027 65.2148 368.566C65.1133 369.098 65.0625 369.746 65.0625 370.512V374.367C65.0625 374.984 65.0938 375.527 65.1562 375.996C65.2266 376.465 65.3281 376.867 65.4609 377.203C65.6016 377.531 65.7656 377.801 65.9531 378.012C66.1484 378.215 66.3711 378.363 66.6211 378.457C66.8789 378.551 67.1602 378.598 67.4648 378.598C67.8398 378.598 68.1719 378.523 68.4609 378.375C68.7578 378.219 69.0078 377.977 69.2109 377.648C69.4219 377.312 69.5781 376.875 69.6797 376.336C69.7812 375.797 69.832 375.141 69.832 374.367ZM75.8438 366.914C75.8438 366.328 75.9883 365.793 76.2773 365.309C76.5664 364.816 76.9531 364.426 77.4375 364.137C77.9219 363.848 78.4531 363.703 79.0312 363.703C79.6016 363.703 80.125 363.848 80.6016 364.137C81.0781 364.426 81.457 364.816 81.7383 365.309C82.0195 365.793 82.1602 366.328 82.1602 366.914C82.1602 367.5 82.0195 368.035 81.7383 368.52C81.457 368.996 81.0781 369.375 80.6016 369.656C80.125 369.938 79.6016 370.078 79.0312 370.078C78.4531 370.078 77.9219 369.938 77.4375 369.656C76.9531 369.375 76.5664 368.996 76.2773 368.52C75.9883 368.035 75.8438 367.5 75.8438 366.914ZM77.5312 366.914C77.5312 367.336 77.6797 367.688 77.9766 367.969C78.2734 368.25 78.625 368.391 79.0312 368.391C79.4375 368.391 79.7773 368.25 80.0508 367.969C80.3242 367.688 80.4609 367.336 80.4609 366.914C80.4609 366.484 80.3242 366.125 80.0508 365.836C79.7773 365.547 79.4375 365.402 79.0312 365.402C78.625 365.402 78.2734 365.547 77.9766 365.836C77.6797 366.125 77.5312 366.484 77.5312 366.914Z" fill="#2A3071"/>
<path d="M12.8438 262.363V265H1.17188V262.75L6.69141 256.832C7.24609 256.215 7.68359 255.672 8.00391 255.203C8.32422 254.727 8.55469 254.301 8.69531 253.926C8.84375 253.543 8.91797 253.18 8.91797 252.836C8.91797 252.32 8.83203 251.879 8.66016 251.512C8.48828 251.137 8.23438 250.848 7.89844 250.645C7.57031 250.441 7.16406 250.34 6.67969 250.34C6.16406 250.34 5.71875 250.465 5.34375 250.715C4.97656 250.965 4.69531 251.312 4.5 251.758C4.3125 252.203 4.21875 252.707 4.21875 253.27H0.832031C0.832031 252.254 1.07422 251.324 1.55859 250.48C2.04297 249.629 2.72656 248.953 3.60938 248.453C4.49219 247.945 5.53906 247.691 6.75 247.691C7.94531 247.691 8.95312 247.887 9.77344 248.277C10.6016 248.66 11.2266 249.215 11.6484 249.941C12.0781 250.66 12.293 251.52 12.293 252.52C12.293 253.082 12.2031 253.633 12.0234 254.172C11.8438 254.703 11.5859 255.234 11.25 255.766C10.9219 256.289 10.5234 256.82 10.0547 257.359C9.58594 257.898 9.06641 258.457 8.49609 259.035L5.53125 262.363H12.8438ZM26.9062 258.625V261.273H14.6133L14.4492 259.223L21.5625 247.938H24.2461L21.3398 252.801L17.8008 258.625H26.9062ZM24.9727 247.938V265H21.5977V247.938H24.9727ZM40.2188 254.969V257.922C40.2188 259.203 40.082 260.309 39.8086 261.238C39.5352 262.16 39.1406 262.918 38.625 263.512C38.1172 264.098 37.5117 264.531 36.8086 264.812C36.1055 265.094 35.3242 265.234 34.4648 265.234C33.7773 265.234 33.1367 265.148 32.543 264.977C31.9492 264.797 31.4141 264.52 30.9375 264.145C30.4688 263.77 30.0625 263.297 29.7188 262.727C29.3828 262.148 29.125 261.461 28.9453 260.664C28.7656 259.867 28.6758 258.953 28.6758 257.922V254.969C28.6758 253.688 28.8125 252.59 29.0859 251.676C29.3672 250.754 29.7617 250 30.2695 249.414C30.7852 248.828 31.3945 248.398 32.0977 248.125C32.8008 247.844 33.582 247.703 34.4414 247.703C35.1289 247.703 35.7656 247.793 36.3516 247.973C36.9453 248.145 37.4805 248.414 37.957 248.781C38.4336 249.148 38.8398 249.621 39.1758 250.199C39.5117 250.77 39.7695 251.453 39.9492 252.25C40.1289 253.039 40.2188 253.945 40.2188 254.969ZM36.832 258.367V254.512C36.832 253.895 36.7969 253.355 36.7266 252.895C36.6641 252.434 36.5664 252.043 36.4336 251.723C36.3008 251.395 36.1367 251.129 35.9414 250.926C35.7461 250.723 35.5234 250.574 35.2734 250.48C35.0234 250.387 34.7461 250.34 34.4414 250.34C34.0586 250.34 33.7188 250.414 33.4219 250.562C33.1328 250.711 32.8867 250.949 32.6836 251.277C32.4805 251.598 32.3242 252.027 32.2148 252.566C32.1133 253.098 32.0625 253.746 32.0625 254.512V258.367C32.0625 258.984 32.0938 259.527 32.1562 259.996C32.2266 260.465 32.3281 260.867 32.4609 261.203C32.6016 261.531 32.7656 261.801 32.9531 262.012C33.1484 262.215 33.3711 262.363 33.6211 262.457C33.8789 262.551 34.1602 262.598 34.4648 262.598C34.8398 262.598 35.1719 262.523 35.4609 262.375C35.7578 262.219 36.0078 261.977 36.2109 261.648C36.4219 261.312 36.5781 260.875 36.6797 260.336C36.7812 259.797 36.832 259.141 36.832 258.367ZM42.8438 250.914C42.8438 250.328 42.9883 249.793 43.2773 249.309C43.5664 248.816 43.9531 248.426 44.4375 248.137C44.9219 247.848 45.4531 247.703 46.0312 247.703C46.6016 247.703 47.125 247.848 47.6016 248.137C48.0781 248.426 48.457 248.816 48.7383 249.309C49.0195 249.793 49.1602 250.328 49.1602 250.914C49.1602 251.5 49.0195 252.035 48.7383 252.52C48.457 252.996 48.0781 253.375 47.6016 253.656C47.125 253.938 46.6016 254.078 46.0312 254.078C45.4531 254.078 44.9219 253.938 44.4375 253.656C43.9531 253.375 43.5664 252.996 43.2773 252.52C42.9883 252.035 42.8438 251.5 42.8438 250.914ZM44.5312 250.914C44.5312 251.336 44.6797 251.688 44.9766 251.969C45.2734 252.25 45.625 252.391 46.0312 252.391C46.4375 252.391 46.7773 252.25 47.0508 251.969C47.3242 251.688 47.4609 251.336 47.4609 250.914C47.4609 250.484 47.3242 250.125 47.0508 249.836C46.7773 249.547 46.4375 249.402 46.0312 249.402C45.625 249.402 45.2734 249.547 44.9766 249.836C44.6797 250.125 44.5312 250.484 44.5312 250.914Z" fill="#2A3071"/>
<path d="M37.6289 136.004H39.4336C40.0117 136.004 40.4883 135.906 40.8633 135.711C41.2383 135.508 41.5156 135.227 41.6953 134.867C41.8828 134.5 41.9766 134.074 41.9766 133.59C41.9766 133.152 41.8906 132.766 41.7188 132.43C41.5547 132.086 41.3008 131.82 40.957 131.633C40.6133 131.438 40.1797 131.34 39.6562 131.34C39.2422 131.34 38.8594 131.422 38.5078 131.586C38.1562 131.75 37.875 131.98 37.6641 132.277C37.4531 132.574 37.3477 132.934 37.3477 133.355H33.9609C33.9609 132.418 34.2109 131.602 34.7109 130.906C35.2188 130.211 35.8984 129.668 36.75 129.277C37.6016 128.887 38.5391 128.691 39.5625 128.691C40.7188 128.691 41.7305 128.879 42.5977 129.254C43.4648 129.621 44.1406 130.164 44.625 130.883C45.1094 131.602 45.3516 132.492 45.3516 133.555C45.3516 134.094 45.2266 134.617 44.9766 135.125C44.7266 135.625 44.3672 136.078 43.8984 136.484C43.4375 136.883 42.875 137.203 42.2109 137.445C41.5469 137.68 40.8008 137.797 39.9727 137.797H37.6289V136.004ZM37.6289 138.57V136.824H39.9727C40.9023 136.824 41.7188 136.93 42.4219 137.141C43.125 137.352 43.7148 137.656 44.1914 138.055C44.668 138.445 45.0273 138.91 45.2695 139.449C45.5117 139.98 45.6328 140.57 45.6328 141.219C45.6328 142.016 45.4805 142.727 45.1758 143.352C44.8711 143.969 44.4414 144.492 43.8867 144.922C43.3398 145.352 42.6992 145.68 41.9648 145.906C41.2305 146.125 40.4297 146.234 39.5625 146.234C38.8438 146.234 38.1367 146.137 37.4414 145.941C36.7539 145.738 36.1289 145.438 35.5664 145.039C35.0117 144.633 34.5664 144.125 34.2305 143.516C33.9023 142.898 33.7383 142.168 33.7383 141.324H37.125C37.125 141.762 37.2344 142.152 37.4531 142.496C37.6719 142.84 37.9727 143.109 38.3555 143.305C38.7461 143.5 39.1797 143.598 39.6562 143.598C40.1953 143.598 40.6562 143.5 41.0391 143.305C41.4297 143.102 41.7266 142.82 41.9297 142.461C42.1406 142.094 42.2461 141.668 42.2461 141.184C42.2461 140.559 42.1328 140.059 41.9062 139.684C41.6797 139.301 41.3555 139.02 40.9336 138.84C40.5117 138.66 40.0117 138.57 39.4336 138.57H37.6289ZM59.4375 135.969V138.922C59.4375 140.203 59.3008 141.309 59.0273 142.238C58.7539 143.16 58.3594 143.918 57.8438 144.512C57.3359 145.098 56.7305 145.531 56.0273 145.812C55.3242 146.094 54.543 146.234 53.6836 146.234C52.9961 146.234 52.3555 146.148 51.7617 145.977C51.168 145.797 50.6328 145.52 50.1562 145.145C49.6875 144.77 49.2812 144.297 48.9375 143.727C48.6016 143.148 48.3438 142.461 48.1641 141.664C47.9844 140.867 47.8945 139.953 47.8945 138.922V135.969C47.8945 134.688 48.0312 133.59 48.3047 132.676C48.5859 131.754 48.9805 131 49.4883 130.414C50.0039 129.828 50.6133 129.398 51.3164 129.125C52.0195 128.844 52.8008 128.703 53.6602 128.703C54.3477 128.703 54.9844 128.793 55.5703 128.973C56.1641 129.145 56.6992 129.414 57.1758 129.781C57.6523 130.148 58.0586 130.621 58.3945 131.199C58.7305 131.77 58.9883 132.453 59.168 133.25C59.3477 134.039 59.4375 134.945 59.4375 135.969ZM56.0508 139.367V135.512C56.0508 134.895 56.0156 134.355 55.9453 133.895C55.8828 133.434 55.7852 133.043 55.6523 132.723C55.5195 132.395 55.3555 132.129 55.1602 131.926C54.9648 131.723 54.7422 131.574 54.4922 131.48C54.2422 131.387 53.9648 131.34 53.6602 131.34C53.2773 131.34 52.9375 131.414 52.6406 131.562C52.3516 131.711 52.1055 131.949 51.9023 132.277C51.6992 132.598 51.543 133.027 51.4336 133.566C51.332 134.098 51.2812 134.746 51.2812 135.512V139.367C51.2812 139.984 51.3125 140.527 51.375 140.996C51.4453 141.465 51.5469 141.867 51.6797 142.203C51.8203 142.531 51.9844 142.801 52.1719 143.012C52.3672 143.215 52.5898 143.363 52.8398 143.457C53.0977 143.551 53.3789 143.598 53.6836 143.598C54.0586 143.598 54.3906 143.523 54.6797 143.375C54.9766 143.219 55.2266 142.977 55.4297 142.648C55.6406 142.312 55.7969 141.875 55.8984 141.336C56 140.797 56.0508 140.141 56.0508 139.367ZM73.2188 135.969V138.922C73.2188 140.203 73.082 141.309 72.8086 142.238C72.5352 143.16 72.1406 143.918 71.625 144.512C71.1172 145.098 70.5117 145.531 69.8086 145.812C69.1055 146.094 68.3242 146.234 67.4648 146.234C66.7773 146.234 66.1367 146.148 65.543 145.977C64.9492 145.797 64.4141 145.52 63.9375 145.145C63.4688 144.77 63.0625 144.297 62.7188 143.727C62.3828 143.148 62.125 142.461 61.9453 141.664C61.7656 140.867 61.6758 139.953 61.6758 138.922V135.969C61.6758 134.688 61.8125 133.59 62.0859 132.676C62.3672 131.754 62.7617 131 63.2695 130.414C63.7852 129.828 64.3945 129.398 65.0977 129.125C65.8008 128.844 66.582 128.703 67.4414 128.703C68.1289 128.703 68.7656 128.793 69.3516 128.973C69.9453 129.145 70.4805 129.414 70.957 129.781C71.4336 130.148 71.8398 130.621 72.1758 131.199C72.5117 131.77 72.7695 132.453 72.9492 133.25C73.1289 134.039 73.2188 134.945 73.2188 135.969ZM69.832 139.367V135.512C69.832 134.895 69.7969 134.355 69.7266 133.895C69.6641 133.434 69.5664 133.043 69.4336 132.723C69.3008 132.395 69.1367 132.129 68.9414 131.926C68.7461 131.723 68.5234 131.574 68.2734 131.48C68.0234 131.387 67.7461 131.34 67.4414 131.34C67.0586 131.34 66.7188 131.414 66.4219 131.562C66.1328 131.711 65.8867 131.949 65.6836 132.277C65.4805 132.598 65.3242 133.027 65.2148 133.566C65.1133 134.098 65.0625 134.746 65.0625 135.512V139.367C65.0625 139.984 65.0938 140.527 65.1562 140.996C65.2266 141.465 65.3281 141.867 65.4609 142.203C65.6016 142.531 65.7656 142.801 65.9531 143.012C66.1484 143.215 66.3711 143.363 66.6211 143.457C66.8789 143.551 67.1602 143.598 67.4648 143.598C67.8398 143.598 68.1719 143.523 68.4609 143.375C68.7578 143.219 69.0078 142.977 69.2109 142.648C69.4219 142.312 69.5781 141.875 69.6797 141.336C69.7812 140.797 69.832 140.141 69.832 139.367ZM75.8438 131.914C75.8438 131.328 75.9883 130.793 76.2773 130.309C76.5664 129.816 76.9531 129.426 77.4375 129.137C77.9219 128.848 78.4531 128.703 79.0312 128.703C79.6016 128.703 80.125 128.848 80.6016 129.137C81.0781 129.426 81.457 129.816 81.7383 130.309C82.0195 130.793 82.1602 131.328 82.1602 131.914C82.1602 132.5 82.0195 133.035 81.7383 133.52C81.457 133.996 81.0781 134.375 80.6016 134.656C80.125 134.938 79.6016 135.078 79.0312 135.078C78.4531 135.078 77.9219 134.938 77.4375 134.656C76.9531 134.375 76.5664 133.996 76.2773 133.52C75.9883 133.035 75.8438 132.5 75.8438 131.914ZM77.5312 131.914C77.5312 132.336 77.6797 132.688 77.9766 132.969C78.2734 133.25 78.625 133.391 79.0312 133.391C79.4375 133.391 79.7773 133.25 80.0508 132.969C80.3242 132.688 80.4609 132.336 80.4609 131.914C80.4609 131.484 80.3242 131.125 80.0508 130.836C79.7773 130.547 79.4375 130.402 79.0312 130.402C78.625 130.402 78.2734 130.547 77.9766 130.836C77.6797 131.125 77.5312 131.484 77.5312 131.914Z" fill="#2A3071"/>
<path d="M136.629 45.0039H138.434C139.012 45.0039 139.488 44.9062 139.863 44.7109C140.238 44.5078 140.516 44.2266 140.695 43.8672C140.883 43.5 140.977 43.0742 140.977 42.5898C140.977 42.1523 140.891 41.7656 140.719 41.4297C140.555 41.0859 140.301 40.8203 139.957 40.6328C139.613 40.4375 139.18 40.3398 138.656 40.3398C138.242 40.3398 137.859 40.4219 137.508 40.5859C137.156 40.75 136.875 40.9805 136.664 41.2773C136.453 41.5742 136.348 41.9336 136.348 42.3555H132.961C132.961 41.418 133.211 40.6016 133.711 39.9062C134.219 39.2109 134.898 38.668 135.75 38.2773C136.602 37.8867 137.539 37.6914 138.562 37.6914C139.719 37.6914 140.73 37.8789 141.598 38.2539C142.465 38.6211 143.141 39.1641 143.625 39.8828C144.109 40.6016 144.352 41.4922 144.352 42.5547C144.352 43.0938 144.227 43.6172 143.977 44.125C143.727 44.625 143.367 45.0781 142.898 45.4844C142.438 45.8828 141.875 46.2031 141.211 46.4453C140.547 46.6797 139.801 46.7969 138.973 46.7969H136.629V45.0039ZM136.629 47.5703V45.8242H138.973C139.902 45.8242 140.719 45.9297 141.422 46.1406C142.125 46.3516 142.715 46.6562 143.191 47.0547C143.668 47.4453 144.027 47.9102 144.27 48.4492C144.512 48.9805 144.633 49.5703 144.633 50.2188C144.633 51.0156 144.48 51.7266 144.176 52.3516C143.871 52.9688 143.441 53.4922 142.887 53.9219C142.34 54.3516 141.699 54.6797 140.965 54.9062C140.23 55.125 139.43 55.2344 138.562 55.2344C137.844 55.2344 137.137 55.1367 136.441 54.9414C135.754 54.7383 135.129 54.4375 134.566 54.0391C134.012 53.6328 133.566 53.125 133.23 52.5156C132.902 51.8984 132.738 51.168 132.738 50.3242H136.125C136.125 50.7617 136.234 51.1523 136.453 51.4961C136.672 51.8398 136.973 52.1094 137.355 52.3047C137.746 52.5 138.18 52.5977 138.656 52.5977C139.195 52.5977 139.656 52.5 140.039 52.3047C140.43 52.1016 140.727 51.8203 140.93 51.4609C141.141 51.0938 141.246 50.668 141.246 50.1836C141.246 49.5586 141.133 49.0586 140.906 48.6836C140.68 48.3008 140.355 48.0195 139.934 47.8398C139.512 47.6602 139.012 47.5703 138.434 47.5703H136.629ZM150.41 45.0039H152.215C152.793 45.0039 153.27 44.9062 153.645 44.7109C154.02 44.5078 154.297 44.2266 154.477 43.8672C154.664 43.5 154.758 43.0742 154.758 42.5898C154.758 42.1523 154.672 41.7656 154.5 41.4297C154.336 41.0859 154.082 40.8203 153.738 40.6328C153.395 40.4375 152.961 40.3398 152.438 40.3398C152.023 40.3398 151.641 40.4219 151.289 40.5859C150.938 40.75 150.656 40.9805 150.445 41.2773C150.234 41.5742 150.129 41.9336 150.129 42.3555H146.742C146.742 41.418 146.992 40.6016 147.492 39.9062C148 39.2109 148.68 38.668 149.531 38.2773C150.383 37.8867 151.32 37.6914 152.344 37.6914C153.5 37.6914 154.512 37.8789 155.379 38.2539C156.246 38.6211 156.922 39.1641 157.406 39.8828C157.891 40.6016 158.133 41.4922 158.133 42.5547C158.133 43.0938 158.008 43.6172 157.758 44.125C157.508 44.625 157.148 45.0781 156.68 45.4844C156.219 45.8828 155.656 46.2031 154.992 46.4453C154.328 46.6797 153.582 46.7969 152.754 46.7969H150.41V45.0039ZM150.41 47.5703V45.8242H152.754C153.684 45.8242 154.5 45.9297 155.203 46.1406C155.906 46.3516 156.496 46.6562 156.973 47.0547C157.449 47.4453 157.809 47.9102 158.051 48.4492C158.293 48.9805 158.414 49.5703 158.414 50.2188C158.414 51.0156 158.262 51.7266 157.957 52.3516C157.652 52.9688 157.223 53.4922 156.668 53.9219C156.121 54.3516 155.48 54.6797 154.746 54.9062C154.012 55.125 153.211 55.2344 152.344 55.2344C151.625 55.2344 150.918 55.1367 150.223 54.9414C149.535 54.7383 148.91 54.4375 148.348 54.0391C147.793 53.6328 147.348 53.125 147.012 52.5156C146.684 51.8984 146.52 51.168 146.52 50.3242H149.906C149.906 50.7617 150.016 51.1523 150.234 51.4961C150.453 51.8398 150.754 52.1094 151.137 52.3047C151.527 52.5 151.961 52.5977 152.438 52.5977C152.977 52.5977 153.438 52.5 153.82 52.3047C154.211 52.1016 154.508 51.8203 154.711 51.4609C154.922 51.0938 155.027 50.668 155.027 50.1836C155.027 49.5586 154.914 49.0586 154.688 48.6836C154.461 48.3008 154.137 48.0195 153.715 47.8398C153.293 47.6602 152.793 47.5703 152.215 47.5703H150.41ZM172.219 44.9688V47.9219C172.219 49.2031 172.082 50.3086 171.809 51.2383C171.535 52.1602 171.141 52.918 170.625 53.5117C170.117 54.0977 169.512 54.5312 168.809 54.8125C168.105 55.0938 167.324 55.2344 166.465 55.2344C165.777 55.2344 165.137 55.1484 164.543 54.9766C163.949 54.7969 163.414 54.5195 162.938 54.1445C162.469 53.7695 162.062 53.2969 161.719 52.7266C161.383 52.1484 161.125 51.4609 160.945 50.6641C160.766 49.8672 160.676 48.9531 160.676 47.9219V44.9688C160.676 43.6875 160.812 42.5898 161.086 41.6758C161.367 40.7539 161.762 40 162.27 39.4141C162.785 38.8281 163.395 38.3984 164.098 38.125C164.801 37.8438 165.582 37.7031 166.441 37.7031C167.129 37.7031 167.766 37.793 168.352 37.9727C168.945 38.1445 169.48 38.4141 169.957 38.7812C170.434 39.1484 170.84 39.6211 171.176 40.1992C171.512 40.7695 171.77 41.4531 171.949 42.25C172.129 43.0391 172.219 43.9453 172.219 44.9688ZM168.832 48.3672V44.5117C168.832 43.8945 168.797 43.3555 168.727 42.8945C168.664 42.4336 168.566 42.043 168.434 41.7227C168.301 41.3945 168.137 41.1289 167.941 40.9258C167.746 40.7227 167.523 40.5742 167.273 40.4805C167.023 40.3867 166.746 40.3398 166.441 40.3398C166.059 40.3398 165.719 40.4141 165.422 40.5625C165.133 40.7109 164.887 40.9492 164.684 41.2773C164.48 41.5977 164.324 42.0273 164.215 42.5664C164.113 43.0977 164.062 43.7461 164.062 44.5117V48.3672C164.062 48.9844 164.094 49.5273 164.156 49.9961C164.227 50.4648 164.328 50.8672 164.461 51.2031C164.602 51.5312 164.766 51.8008 164.953 52.0117C165.148 52.2148 165.371 52.3633 165.621 52.457C165.879 52.5508 166.16 52.5977 166.465 52.5977C166.84 52.5977 167.172 52.5234 167.461 52.375C167.758 52.2188 168.008 51.9766 168.211 51.6484C168.422 51.3125 168.578 50.875 168.68 50.3359C168.781 49.7969 168.832 49.1406 168.832 48.3672ZM174.844 40.9141C174.844 40.3281 174.988 39.793 175.277 39.3086C175.566 38.8164 175.953 38.4258 176.438 38.1367C176.922 37.8477 177.453 37.7031 178.031 37.7031C178.602 37.7031 179.125 37.8477 179.602 38.1367C180.078 38.4258 180.457 38.8164 180.738 39.3086C181.02 39.793 181.16 40.3281 181.16 40.9141C181.16 41.5 181.02 42.0352 180.738 42.5195C180.457 42.9961 180.078 43.375 179.602 43.6562C179.125 43.9375 178.602 44.0781 178.031 44.0781C177.453 44.0781 176.922 43.9375 176.438 43.6562C175.953 43.375 175.566 42.9961 175.277 42.5195C174.988 42.0352 174.844 41.5 174.844 40.9141ZM176.531 40.9141C176.531 41.3359 176.68 41.6875 176.977 41.9688C177.273 42.25 177.625 42.3906 178.031 42.3906C178.438 42.3906 178.777 42.25 179.051 41.9688C179.324 41.6875 179.461 41.3359 179.461 40.9141C179.461 40.4844 179.324 40.125 179.051 39.8359C178.777 39.5469 178.438 39.4023 178.031 39.4023C177.625 39.4023 177.273 39.5469 176.977 39.8359C176.68 40.125 176.531 40.4844 176.531 40.9141Z" fill="#2A3071"/>
<path d="M490.879 128.762H491.371V131.457H491.172C490.281 131.457 489.488 131.59 488.793 131.855C488.098 132.121 487.508 132.5 487.023 132.992C486.547 133.477 486.18 134.062 485.922 134.75C485.672 135.438 485.547 136.207 485.547 137.059V139.895C485.547 140.504 485.605 141.043 485.723 141.512C485.848 141.973 486.023 142.359 486.25 142.672C486.484 142.977 486.758 143.207 487.07 143.363C487.383 143.512 487.734 143.586 488.125 143.586C488.492 143.586 488.824 143.508 489.121 143.352C489.426 143.195 489.684 142.977 489.895 142.695C490.113 142.406 490.277 142.07 490.387 141.688C490.504 141.297 490.562 140.871 490.562 140.41C490.562 139.949 490.504 139.523 490.387 139.133C490.277 138.742 490.113 138.406 489.895 138.125C489.676 137.836 489.41 137.613 489.098 137.457C488.785 137.301 488.434 137.223 488.043 137.223C487.512 137.223 487.043 137.348 486.637 137.598C486.238 137.84 485.926 138.152 485.699 138.535C485.473 138.918 485.352 139.32 485.336 139.742L484.316 139.086C484.34 138.484 484.465 137.914 484.691 137.375C484.926 136.836 485.246 136.359 485.652 135.945C486.066 135.523 486.562 135.195 487.141 134.961C487.719 134.719 488.371 134.598 489.098 134.598C489.895 134.598 490.594 134.75 491.195 135.055C491.805 135.359 492.312 135.777 492.719 136.309C493.125 136.84 493.43 137.453 493.633 138.148C493.836 138.844 493.938 139.586 493.938 140.375C493.938 141.203 493.801 141.973 493.527 142.684C493.262 143.395 492.875 144.016 492.367 144.547C491.867 145.078 491.266 145.492 490.562 145.789C489.859 146.086 489.07 146.234 488.195 146.234C487.289 146.234 486.465 146.07 485.723 145.742C484.988 145.406 484.355 144.938 483.824 144.336C483.293 143.734 482.883 143.02 482.594 142.191C482.312 141.363 482.172 140.457 482.172 139.473V138.16C482.172 136.785 482.371 135.527 482.77 134.387C483.176 133.238 483.758 132.246 484.516 131.41C485.273 130.566 486.188 129.914 487.258 129.453C488.328 128.992 489.535 128.762 490.879 128.762ZM507.438 135.969V138.922C507.438 140.203 507.301 141.309 507.027 142.238C506.754 143.16 506.359 143.918 505.844 144.512C505.336 145.098 504.73 145.531 504.027 145.812C503.324 146.094 502.543 146.234 501.684 146.234C500.996 146.234 500.355 146.148 499.762 145.977C499.168 145.797 498.633 145.52 498.156 145.145C497.688 144.77 497.281 144.297 496.938 143.727C496.602 143.148 496.344 142.461 496.164 141.664C495.984 140.867 495.895 139.953 495.895 138.922V135.969C495.895 134.688 496.031 133.59 496.305 132.676C496.586 131.754 496.98 131 497.488 130.414C498.004 129.828 498.613 129.398 499.316 129.125C500.02 128.844 500.801 128.703 501.66 128.703C502.348 128.703 502.984 128.793 503.57 128.973C504.164 129.145 504.699 129.414 505.176 129.781C505.652 130.148 506.059 130.621 506.395 131.199C506.73 131.77 506.988 132.453 507.168 133.25C507.348 134.039 507.438 134.945 507.438 135.969ZM504.051 139.367V135.512C504.051 134.895 504.016 134.355 503.945 133.895C503.883 133.434 503.785 133.043 503.652 132.723C503.52 132.395 503.355 132.129 503.16 131.926C502.965 131.723 502.742 131.574 502.492 131.48C502.242 131.387 501.965 131.34 501.66 131.34C501.277 131.34 500.938 131.414 500.641 131.562C500.352 131.711 500.105 131.949 499.902 132.277C499.699 132.598 499.543 133.027 499.434 133.566C499.332 134.098 499.281 134.746 499.281 135.512V139.367C499.281 139.984 499.312 140.527 499.375 140.996C499.445 141.465 499.547 141.867 499.68 142.203C499.82 142.531 499.984 142.801 500.172 143.012C500.367 143.215 500.59 143.363 500.84 143.457C501.098 143.551 501.379 143.598 501.684 143.598C502.059 143.598 502.391 143.523 502.68 143.375C502.977 143.219 503.227 142.977 503.43 142.648C503.641 142.312 503.797 141.875 503.898 141.336C504 140.797 504.051 140.141 504.051 139.367ZM510.062 131.914C510.062 131.328 510.207 130.793 510.496 130.309C510.785 129.816 511.172 129.426 511.656 129.137C512.141 128.848 512.672 128.703 513.25 128.703C513.82 128.703 514.344 128.848 514.82 129.137C515.297 129.426 515.676 129.816 515.957 130.309C516.238 130.793 516.379 131.328 516.379 131.914C516.379 132.5 516.238 133.035 515.957 133.52C515.676 133.996 515.297 134.375 514.82 134.656C514.344 134.938 513.82 135.078 513.25 135.078C512.672 135.078 512.141 134.938 511.656 134.656C511.172 134.375 510.785 133.996 510.496 133.52C510.207 133.035 510.062 132.5 510.062 131.914ZM511.75 131.914C511.75 132.336 511.898 132.688 512.195 132.969C512.492 133.25 512.844 133.391 513.25 133.391C513.656 133.391 513.996 133.25 514.27 132.969C514.543 132.688 514.68 132.336 514.68 131.914C514.68 131.484 514.543 131.125 514.27 130.836C513.996 130.547 513.656 130.402 513.25 130.402C512.844 130.402 512.492 130.547 512.195 130.836C511.898 131.125 511.75 131.484 511.75 131.914Z" fill="#2A3071"/>
<path d="M513.562 262.434H513.785C514.723 262.434 515.527 262.32 516.199 262.094C516.879 261.859 517.438 261.523 517.875 261.086C518.312 260.648 518.637 260.113 518.848 259.48C519.059 258.84 519.164 258.113 519.164 257.301V254.066C519.164 253.449 519.102 252.906 518.977 252.438C518.859 251.969 518.688 251.582 518.461 251.277C518.242 250.965 517.984 250.73 517.688 250.574C517.398 250.418 517.078 250.34 516.727 250.34C516.352 250.34 516.02 250.434 515.73 250.621C515.441 250.801 515.195 251.047 514.992 251.359C514.797 251.672 514.645 252.031 514.535 252.438C514.434 252.836 514.383 253.254 514.383 253.691C514.383 254.129 514.434 254.547 514.535 254.945C514.637 255.336 514.789 255.684 514.992 255.988C515.195 256.285 515.449 256.523 515.754 256.703C516.059 256.875 516.418 256.961 516.832 256.961C517.23 256.961 517.586 256.887 517.898 256.738C518.219 256.582 518.488 256.379 518.707 256.129C518.934 255.879 519.105 255.602 519.223 255.297C519.348 254.992 519.41 254.684 519.41 254.371L520.523 254.98C520.523 255.527 520.406 256.066 520.172 256.598C519.938 257.129 519.609 257.613 519.188 258.051C518.773 258.48 518.293 258.824 517.746 259.082C517.199 259.34 516.613 259.469 515.988 259.469C515.191 259.469 514.484 259.324 513.867 259.035C513.25 258.738 512.727 258.332 512.297 257.816C511.875 257.293 511.555 256.684 511.336 255.988C511.117 255.293 511.008 254.539 511.008 253.727C511.008 252.898 511.141 252.121 511.406 251.395C511.68 250.668 512.066 250.027 512.566 249.473C513.074 248.918 513.68 248.484 514.383 248.172C515.094 247.852 515.883 247.691 516.75 247.691C517.617 247.691 518.406 247.859 519.117 248.195C519.828 248.531 520.438 249.008 520.945 249.625C521.453 250.234 521.844 250.965 522.117 251.816C522.398 252.668 522.539 253.613 522.539 254.652V255.824C522.539 256.934 522.418 257.965 522.176 258.918C521.941 259.871 521.586 260.734 521.109 261.508C520.641 262.273 520.055 262.93 519.352 263.477C518.656 264.023 517.848 264.441 516.926 264.73C516.004 265.02 514.973 265.164 513.832 265.164H513.562V262.434ZM536.438 254.969V257.922C536.438 259.203 536.301 260.309 536.027 261.238C535.754 262.16 535.359 262.918 534.844 263.512C534.336 264.098 533.73 264.531 533.027 264.812C532.324 265.094 531.543 265.234 530.684 265.234C529.996 265.234 529.355 265.148 528.762 264.977C528.168 264.797 527.633 264.52 527.156 264.145C526.688 263.77 526.281 263.297 525.938 262.727C525.602 262.148 525.344 261.461 525.164 260.664C524.984 259.867 524.895 258.953 524.895 257.922V254.969C524.895 253.688 525.031 252.59 525.305 251.676C525.586 250.754 525.98 250 526.488 249.414C527.004 248.828 527.613 248.398 528.316 248.125C529.02 247.844 529.801 247.703 530.66 247.703C531.348 247.703 531.984 247.793 532.57 247.973C533.164 248.145 533.699 248.414 534.176 248.781C534.652 249.148 535.059 249.621 535.395 250.199C535.73 250.77 535.988 251.453 536.168 252.25C536.348 253.039 536.438 253.945 536.438 254.969ZM533.051 258.367V254.512C533.051 253.895 533.016 253.355 532.945 252.895C532.883 252.434 532.785 252.043 532.652 251.723C532.52 251.395 532.355 251.129 532.16 250.926C531.965 250.723 531.742 250.574 531.492 250.48C531.242 250.387 530.965 250.34 530.66 250.34C530.277 250.34 529.938 250.414 529.641 250.562C529.352 250.711 529.105 250.949 528.902 251.277C528.699 251.598 528.543 252.027 528.434 252.566C528.332 253.098 528.281 253.746 528.281 254.512V258.367C528.281 258.984 528.312 259.527 528.375 259.996C528.445 260.465 528.547 260.867 528.68 261.203C528.82 261.531 528.984 261.801 529.172 262.012C529.367 262.215 529.59 262.363 529.84 262.457C530.098 262.551 530.379 262.598 530.684 262.598C531.059 262.598 531.391 262.523 531.68 262.375C531.977 262.219 532.227 261.977 532.43 261.648C532.641 261.312 532.797 260.875 532.898 260.336C533 259.797 533.051 259.141 533.051 258.367ZM539.062 250.914C539.062 250.328 539.207 249.793 539.496 249.309C539.785 248.816 540.172 248.426 540.656 248.137C541.141 247.848 541.672 247.703 542.25 247.703C542.82 247.703 543.344 247.848 543.82 248.137C544.297 248.426 544.676 248.816 544.957 249.309C545.238 249.793 545.379 250.328 545.379 250.914C545.379 251.5 545.238 252.035 544.957 252.52C544.676 252.996 544.297 253.375 543.82 253.656C543.344 253.938 542.82 254.078 542.25 254.078C541.672 254.078 541.141 253.938 540.656 253.656C540.172 253.375 539.785 252.996 539.496 252.52C539.207 252.035 539.062 251.5 539.062 250.914ZM540.75 250.914C540.75 251.336 540.898 251.688 541.195 251.969C541.492 252.25 541.844 252.391 542.25 252.391C542.656 252.391 542.996 252.25 543.27 251.969C543.543 251.688 543.68 251.336 543.68 250.914C543.68 250.484 543.543 250.125 543.27 249.836C542.996 249.547 542.656 249.402 542.25 249.402C541.844 249.402 541.492 249.547 541.195 249.836C540.898 250.125 540.75 250.484 540.75 250.914Z" fill="#2A3071"/>
</svg>
