<svg width="1920" height="1080" viewBox="0 0 1920 1080" xmlns="http://www.w3.org/2000/svg"><rect width="1920" height="1080" fill="#2a3071"/><path d="M 0,1080 C 0,1080 0,180 0,180 C 97.28974358974361,165.2717948717949 194.57948717948722,150.54358974358976 315,173 C 435.4205128205128,195.45641025641024 578.9717948717949,255.09743589743587 676,246 C 773.0282051282051,236.90256410256413 823.5333333333333,159.06666666666666 923,124 C 1022.4666666666667,88.93333333333332 1170.894871794872,96.63589743589745 1283,130 C 1395.105128205128,163.36410256410255 1470.8871794871795,222.38974358974357 1571,235 C 1671.1128205128205,247.61025641025643 1795.5564102564103,213.8051282051282 1920,180 C 1920,180 1920,1080 1920,1080 Z" fill="#ffffff" opacity="0.09999999999999999"/><path d="M 0,1080 C 0,1080 0,360 0,360 C 97.97179487179486,377.14102564102564 195.9435897435897,394.28205128205127 297,378 C 398.0564102564103,361.71794871794873 502.197435897436,312.0128205128205 597,303 C 691.802564102564,293.9871794871795 777.2666666666664,325.6666666666667 913,340 C 1048.7333333333336,354.3333333333333 1234.7358974358976,351.3205128205128 1338,340 C 1441.2641025641024,328.6794871794872 1461.7897435897435,309.05128205128204 1545,311 C 1628.2102564102565,312.94871794871796 1774.1051282051283,336.474358974359 1920,360 C 1920,360 1920,1080 1920,1080 Z" fill="#ffffff" opacity="0.19999999999999998"/><path d="M 0,1080 C 0,1080 0,540 0,540 C 75.88205128205132,551.5769230769231 151.76410256410264,563.1538461538461 267,567 C 382.23589743589736,570.8461538461539 536.825641025641,566.9615384615385 654,570 C 771.174358974359,573.0384615384615 850.9333333333334,583 940,557 C 1029.0666666666666,531 1127.4410256410258,469.0384615384615 1229,479 C 1330.5589743589742,488.9615384615385 1435.302564102564,570.8461538461538 1551,593 C 1666.697435897436,615.1538461538462 1793.3487179487179,577.5769230769231 1920,540 C 1920,540 1920,1080 1920,1080 Z" fill="#ffffff" opacity="0.3"/><path d="M 0,1080 C 0,1080 0,720 0,720 C 77.14871794871797,725.3589743589744 154.29743589743595,730.7179487179486 267,732 C 379.70256410256405,733.2820512820514 527.9589743589743,730.4871794871794 661,716 C 794.0410256410257,701.5128205128206 911.8666666666668,675.3333333333333 1008,677 C 1104.1333333333332,678.6666666666667 1178.574358974359,708.1794871794872 1274,725 C 1369.425641025641,741.8205128205128 1485.8358974358973,745.948717948718 1597,743 C 1708.1641025641027,740.051282051282 1814.0820512820515,730.025641025641 1920,720 C 1920,720 1920,1080 1920,1080 Z" fill="#ffffff" opacity="0.39999999999999997"/><path d="M 0,1080 C 0,1080 0,900 0,900 C 90.06410256410254,919.4128205128204 180.12820512820508,938.825641025641 292,934 C 403.8717948717949,929.174358974359 537.5512820512821,900.1102564102566 655,901 C 772.4487179487179,901.8897435897434 873.6666666666665,932.7333333333332 986,944 C 1098.3333333333335,955.2666666666668 1221.7820512820515,946.9564102564103 1329,940 C 1436.2179487179485,933.0435897435897 1527.2051282051282,927.4410256410256 1623,921 C 1718.7948717948718,914.5589743589744 1819.397435897436,907.2794871794872 1920,900 C 1920,900 1920,1080 1920,1080 Z" fill="#ffffff" opacity="0.49999999999999994"/></svg>