<svg width="662" height="351" viewBox="0 0 662 351" fill="none" xmlns="http://www.w3.org/2000/svg">
<rect x="321" y="32" width="5" height="25" fill="#2A3071"/>
<rect x="473.582" y="72.0498" width="5" height="24.9853" transform="rotate(30 473.582 72.0498)" fill="#2A3071"/>
<rect x="584.121" y="183.643" width="5" height="25" transform="rotate(60 584.121 183.643)" fill="#2A3071"/>
<rect x="169.118" y="74.603" width="5" height="25.3244" transform="rotate(-30 169.118 74.603)" fill="#2A3071"/>
<rect x="60.4863" y="188.036" width="5" height="25.3504" transform="rotate(-60 60.4863 188.036)" fill="#2A3071"/>
<rect x="24" y="339" width="4" height="600" transform="rotate(-90 24 339)" fill="#2A3071"/>
<path d="M597.5 332V337.5H50.5V332C50.5 180.95 172.95 58.5 324 58.5C475.05 58.5 597.5 180.95 597.5 332Z" stroke="#2A3071" stroke-width="3"/>
<rect x="52" y="334.3" width="544" height="4.7" fill="white"/>
<path d="M12.6562 332.969V335.922C12.6562 337.203 12.5195 338.309 12.2461 339.238C11.9727 340.16 11.5781 340.918 11.0625 341.512C10.5547 342.098 9.94922 342.531 9.24609 342.812C8.54297 343.094 7.76172 343.234 6.90234 343.234C6.21484 343.234 5.57422 343.148 4.98047 342.977C4.38672 342.797 3.85156 342.52 3.375 342.145C2.90625 341.77 2.5 341.297 2.15625 340.727C1.82031 340.148 1.5625 339.461 1.38281 338.664C1.20312 337.867 1.11328 336.953 1.11328 335.922V332.969C1.11328 331.688 1.25 330.59 1.52344 329.676C1.80469 328.754 2.19922 328 2.70703 327.414C3.22266 326.828 3.83203 326.398 4.53516 326.125C5.23828 325.844 6.01953 325.703 6.87891 325.703C7.56641 325.703 8.20312 325.793 8.78906 325.973C9.38281 326.145 9.91797 326.414 10.3945 326.781C10.8711 327.148 11.2773 327.621 11.6133 328.199C11.9492 328.77 12.207 329.453 12.3867 330.25C12.5664 331.039 12.6562 331.945 12.6562 332.969ZM9.26953 336.367V332.512C9.26953 331.895 9.23438 331.355 9.16406 330.895C9.10156 330.434 9.00391 330.043 8.87109 329.723C8.73828 329.395 8.57422 329.129 8.37891 328.926C8.18359 328.723 7.96094 328.574 7.71094 328.48C7.46094 328.387 7.18359 328.34 6.87891 328.34C6.49609 328.34 6.15625 328.414 5.85938 328.562C5.57031 328.711 5.32422 328.949 5.12109 329.277C4.91797 329.598 4.76172 330.027 4.65234 330.566C4.55078 331.098 4.5 331.746 4.5 332.512V336.367C4.5 336.984 4.53125 337.527 4.59375 337.996C4.66406 338.465 4.76562 338.867 4.89844 339.203C5.03906 339.531 5.20312 339.801 5.39062 340.012C5.58594 340.215 5.80859 340.363 6.05859 340.457C6.31641 340.551 6.59766 340.598 6.90234 340.598C7.27734 340.598 7.60938 340.523 7.89844 340.375C8.19531 340.219 8.44531 339.977 8.64844 339.648C8.85938 339.312 9.01562 338.875 9.11719 338.336C9.21875 337.797 9.26953 337.141 9.26953 336.367Z" fill="#2A3071"/>
<path d="M39.3477 178.23L36.6523 177.586L37.625 168.938H47.2109V171.668H40.4023L39.9805 175.453C40.207 175.32 40.5508 175.18 41.0117 175.031C41.4727 174.875 41.9883 174.797 42.5586 174.797C43.3867 174.797 44.1211 174.926 44.7617 175.184C45.4023 175.441 45.9453 175.816 46.3906 176.309C46.8438 176.801 47.1875 177.402 47.4219 178.113C47.6562 178.824 47.7734 179.629 47.7734 180.527C47.7734 181.285 47.6562 182.008 47.4219 182.695C47.1875 183.375 46.832 183.984 46.3555 184.523C45.8789 185.055 45.2812 185.473 44.5625 185.777C43.8438 186.082 42.9922 186.234 42.0078 186.234C41.2734 186.234 40.5625 186.125 39.875 185.906C39.1953 185.688 38.582 185.363 38.0352 184.934C37.4961 184.504 37.0625 183.984 36.7344 183.375C36.4141 182.758 36.2461 182.055 36.2305 181.266H39.582C39.6289 181.75 39.7539 182.168 39.957 182.52C40.168 182.863 40.4453 183.129 40.7891 183.316C41.1328 183.504 41.5352 183.598 41.9961 183.598C42.4258 183.598 42.793 183.516 43.0977 183.352C43.4023 183.188 43.6484 182.961 43.8359 182.672C44.0234 182.375 44.1602 182.031 44.2461 181.641C44.3398 181.242 44.3867 180.812 44.3867 180.352C44.3867 179.891 44.332 179.473 44.2227 179.098C44.1133 178.723 43.9453 178.398 43.7188 178.125C43.4922 177.852 43.2031 177.641 42.8516 177.492C42.5078 177.344 42.1055 177.27 41.6445 177.27C41.0195 177.27 40.5352 177.367 40.1914 177.562C39.8555 177.758 39.5742 177.98 39.3477 178.23Z" fill="#2A3071"/>
<path d="M140.398 44.9023V62H137.023V48.793L132.969 50.082V47.4219L140.035 44.9023H140.398ZM157.438 51.9688V54.9219C157.438 56.2031 157.301 57.3086 157.027 58.2383C156.754 59.1602 156.359 59.918 155.844 60.5117C155.336 61.0977 154.73 61.5312 154.027 61.8125C153.324 62.0938 152.543 62.2344 151.684 62.2344C150.996 62.2344 150.355 62.1484 149.762 61.9766C149.168 61.7969 148.633 61.5195 148.156 61.1445C147.688 60.7695 147.281 60.2969 146.938 59.7266C146.602 59.1484 146.344 58.4609 146.164 57.6641C145.984 56.8672 145.895 55.9531 145.895 54.9219V51.9688C145.895 50.6875 146.031 49.5898 146.305 48.6758C146.586 47.7539 146.98 47 147.488 46.4141C148.004 45.8281 148.613 45.3984 149.316 45.125C150.02 44.8438 150.801 44.7031 151.66 44.7031C152.348 44.7031 152.984 44.793 153.57 44.9727C154.164 45.1445 154.699 45.4141 155.176 45.7812C155.652 46.1484 156.059 46.6211 156.395 47.1992C156.73 47.7695 156.988 48.4531 157.168 49.25C157.348 50.0391 157.438 50.9453 157.438 51.9688ZM154.051 55.3672V51.5117C154.051 50.8945 154.016 50.3555 153.945 49.8945C153.883 49.4336 153.785 49.043 153.652 48.7227C153.52 48.3945 153.355 48.1289 153.16 47.9258C152.965 47.7227 152.742 47.5742 152.492 47.4805C152.242 47.3867 151.965 47.3398 151.66 47.3398C151.277 47.3398 150.938 47.4141 150.641 47.5625C150.352 47.7109 150.105 47.9492 149.902 48.2773C149.699 48.5977 149.543 49.0273 149.434 49.5664C149.332 50.0977 149.281 50.7461 149.281 51.5117V55.3672C149.281 55.9844 149.312 56.5273 149.375 56.9961C149.445 57.4648 149.547 57.8672 149.68 58.2031C149.82 58.5312 149.984 58.8008 150.172 59.0117C150.367 59.2148 150.59 59.3633 150.84 59.457C151.098 59.5508 151.379 59.5977 151.684 59.5977C152.059 59.5977 152.391 59.5234 152.68 59.375C152.977 59.2188 153.227 58.9766 153.43 58.6484C153.641 58.3125 153.797 57.875 153.898 57.3359C154 56.7969 154.051 56.1406 154.051 55.3672Z" fill="#2A3071"/>
<path d="M319.398 4.90234V22H316.023V8.79297L311.969 10.082V7.42188L319.035 4.90234H319.398ZM328.129 14.2305L325.434 13.5859L326.406 4.9375H335.992V7.66797H329.184L328.762 11.4531C328.988 11.3203 329.332 11.1797 329.793 11.0312C330.254 10.875 330.77 10.7969 331.34 10.7969C332.168 10.7969 332.902 10.9258 333.543 11.1836C334.184 11.4414 334.727 11.8164 335.172 12.3086C335.625 12.8008 335.969 13.4023 336.203 14.1133C336.438 14.8242 336.555 15.6289 336.555 16.5273C336.555 17.2852 336.438 18.0078 336.203 18.6953C335.969 19.375 335.613 19.9844 335.137 20.5234C334.66 21.0547 334.062 21.4727 333.344 21.7773C332.625 22.082 331.773 22.2344 330.789 22.2344C330.055 22.2344 329.344 22.125 328.656 21.9062C327.977 21.6875 327.363 21.3633 326.816 20.9336C326.277 20.5039 325.844 19.9844 325.516 19.375C325.195 18.7578 325.027 18.0547 325.012 17.2656H328.363C328.41 17.75 328.535 18.168 328.738 18.5195C328.949 18.8633 329.227 19.1289 329.57 19.3164C329.914 19.5039 330.316 19.5977 330.777 19.5977C331.207 19.5977 331.574 19.5156 331.879 19.3516C332.184 19.1875 332.43 18.9609 332.617 18.6719C332.805 18.375 332.941 18.0312 333.027 17.6406C333.121 17.2422 333.168 16.8125 333.168 16.3516C333.168 15.8906 333.113 15.4727 333.004 15.0977C332.895 14.7227 332.727 14.3984 332.5 14.125C332.273 13.8516 331.984 13.6406 331.633 13.4922C331.289 13.3438 330.887 13.2695 330.426 13.2695C329.801 13.2695 329.316 13.3672 328.973 13.5625C328.637 13.7578 328.355 13.9805 328.129 14.2305Z" fill="#2A3071"/>
<path d="M500.844 59.3633V62H489.172V59.75L494.691 53.832C495.246 53.2148 495.684 52.6719 496.004 52.2031C496.324 51.7266 496.555 51.3008 496.695 50.9258C496.844 50.543 496.918 50.1797 496.918 49.8359C496.918 49.3203 496.832 48.8789 496.66 48.5117C496.488 48.1367 496.234 47.8477 495.898 47.6445C495.57 47.4414 495.164 47.3398 494.68 47.3398C494.164 47.3398 493.719 47.4648 493.344 47.7148C492.977 47.9648 492.695 48.3125 492.5 48.7578C492.312 49.2031 492.219 49.707 492.219 50.2695H488.832C488.832 49.2539 489.074 48.3242 489.559 47.4805C490.043 46.6289 490.727 45.9531 491.609 45.4531C492.492 44.9453 493.539 44.6914 494.75 44.6914C495.945 44.6914 496.953 44.8867 497.773 45.2773C498.602 45.6602 499.227 46.2148 499.648 46.9414C500.078 47.6602 500.293 48.5195 500.293 49.5195C500.293 50.082 500.203 50.6328 500.023 51.1719C499.844 51.7031 499.586 52.2344 499.25 52.7656C498.922 53.2891 498.523 53.8203 498.055 54.3594C497.586 54.8984 497.066 55.457 496.496 56.0352L493.531 59.3633H500.844ZM514.438 51.9688V54.9219C514.438 56.2031 514.301 57.3086 514.027 58.2383C513.754 59.1602 513.359 59.918 512.844 60.5117C512.336 61.0977 511.73 61.5312 511.027 61.8125C510.324 62.0938 509.543 62.2344 508.684 62.2344C507.996 62.2344 507.355 62.1484 506.762 61.9766C506.168 61.7969 505.633 61.5195 505.156 61.1445C504.688 60.7695 504.281 60.2969 503.938 59.7266C503.602 59.1484 503.344 58.4609 503.164 57.6641C502.984 56.8672 502.895 55.9531 502.895 54.9219V51.9688C502.895 50.6875 503.031 49.5898 503.305 48.6758C503.586 47.7539 503.98 47 504.488 46.4141C505.004 45.8281 505.613 45.3984 506.316 45.125C507.02 44.8438 507.801 44.7031 508.66 44.7031C509.348 44.7031 509.984 44.793 510.57 44.9727C511.164 45.1445 511.699 45.4141 512.176 45.7812C512.652 46.1484 513.059 46.6211 513.395 47.1992C513.73 47.7695 513.988 48.4531 514.168 49.25C514.348 50.0391 514.438 50.9453 514.438 51.9688ZM511.051 55.3672V51.5117C511.051 50.8945 511.016 50.3555 510.945 49.8945C510.883 49.4336 510.785 49.043 510.652 48.7227C510.52 48.3945 510.355 48.1289 510.16 47.9258C509.965 47.7227 509.742 47.5742 509.492 47.4805C509.242 47.3867 508.965 47.3398 508.66 47.3398C508.277 47.3398 507.938 47.4141 507.641 47.5625C507.352 47.7109 507.105 47.9492 506.902 48.2773C506.699 48.5977 506.543 49.0273 506.434 49.5664C506.332 50.0977 506.281 50.7461 506.281 51.5117V55.3672C506.281 55.9844 506.312 56.5273 506.375 56.9961C506.445 57.4648 506.547 57.8672 506.68 58.2031C506.82 58.5312 506.984 58.8008 507.172 59.0117C507.367 59.2148 507.59 59.3633 507.84 59.457C508.098 59.5508 508.379 59.5977 508.684 59.5977C509.059 59.5977 509.391 59.5234 509.68 59.375C509.977 59.2188 510.227 58.9766 510.43 58.6484C510.641 58.3125 510.797 57.875 510.898 57.3359C511 56.7969 511.051 56.1406 511.051 55.3672Z" fill="#2A3071"/>
<path d="M609.844 173.363V176H598.172V173.75L603.691 167.832C604.246 167.215 604.684 166.672 605.004 166.203C605.324 165.727 605.555 165.301 605.695 164.926C605.844 164.543 605.918 164.18 605.918 163.836C605.918 163.32 605.832 162.879 605.66 162.512C605.488 162.137 605.234 161.848 604.898 161.645C604.57 161.441 604.164 161.34 603.68 161.34C603.164 161.34 602.719 161.465 602.344 161.715C601.977 161.965 601.695 162.312 601.5 162.758C601.312 163.203 601.219 163.707 601.219 164.27H597.832C597.832 163.254 598.074 162.324 598.559 161.48C599.043 160.629 599.727 159.953 600.609 159.453C601.492 158.945 602.539 158.691 603.75 158.691C604.945 158.691 605.953 158.887 606.773 159.277C607.602 159.66 608.227 160.215 608.648 160.941C609.078 161.66 609.293 162.52 609.293 163.52C609.293 164.082 609.203 164.633 609.023 165.172C608.844 165.703 608.586 166.234 608.25 166.766C607.922 167.289 607.523 167.82 607.055 168.359C606.586 168.898 606.066 169.457 605.496 170.035L602.531 173.363H609.844ZM615.129 168.23L612.434 167.586L613.406 158.938H622.992V161.668H616.184L615.762 165.453C615.988 165.32 616.332 165.18 616.793 165.031C617.254 164.875 617.77 164.797 618.34 164.797C619.168 164.797 619.902 164.926 620.543 165.184C621.184 165.441 621.727 165.816 622.172 166.309C622.625 166.801 622.969 167.402 623.203 168.113C623.438 168.824 623.555 169.629 623.555 170.527C623.555 171.285 623.438 172.008 623.203 172.695C622.969 173.375 622.613 173.984 622.137 174.523C621.66 175.055 621.062 175.473 620.344 175.777C619.625 176.082 618.773 176.234 617.789 176.234C617.055 176.234 616.344 176.125 615.656 175.906C614.977 175.688 614.363 175.363 613.816 174.934C613.277 174.504 612.844 173.984 612.516 173.375C612.195 172.758 612.027 172.055 612.012 171.266H615.363C615.41 171.75 615.535 172.168 615.738 172.52C615.949 172.863 616.227 173.129 616.57 173.316C616.914 173.504 617.316 173.598 617.777 173.598C618.207 173.598 618.574 173.516 618.879 173.352C619.184 173.188 619.43 172.961 619.617 172.672C619.805 172.375 619.941 172.031 620.027 171.641C620.121 171.242 620.168 170.812 620.168 170.352C620.168 169.891 620.113 169.473 620.004 169.098C619.895 168.723 619.727 168.398 619.5 168.125C619.273 167.852 618.984 167.641 618.633 167.492C618.289 167.344 617.887 167.27 617.426 167.27C616.801 167.27 616.316 167.367 615.973 167.562C615.637 167.758 615.355 167.98 615.129 168.23Z" fill="#2A3071"/>
<path d="M638.629 335.004H640.434C641.012 335.004 641.488 334.906 641.863 334.711C642.238 334.508 642.516 334.227 642.695 333.867C642.883 333.5 642.977 333.074 642.977 332.59C642.977 332.152 642.891 331.766 642.719 331.43C642.555 331.086 642.301 330.82 641.957 330.633C641.613 330.438 641.18 330.34 640.656 330.34C640.242 330.34 639.859 330.422 639.508 330.586C639.156 330.75 638.875 330.98 638.664 331.277C638.453 331.574 638.348 331.934 638.348 332.355H634.961C634.961 331.418 635.211 330.602 635.711 329.906C636.219 329.211 636.898 328.668 637.75 328.277C638.602 327.887 639.539 327.691 640.562 327.691C641.719 327.691 642.73 327.879 643.598 328.254C644.465 328.621 645.141 329.164 645.625 329.883C646.109 330.602 646.352 331.492 646.352 332.555C646.352 333.094 646.227 333.617 645.977 334.125C645.727 334.625 645.367 335.078 644.898 335.484C644.438 335.883 643.875 336.203 643.211 336.445C642.547 336.68 641.801 336.797 640.973 336.797H638.629V335.004ZM638.629 337.57V335.824H640.973C641.902 335.824 642.719 335.93 643.422 336.141C644.125 336.352 644.715 336.656 645.191 337.055C645.668 337.445 646.027 337.91 646.27 338.449C646.512 338.98 646.633 339.57 646.633 340.219C646.633 341.016 646.48 341.727 646.176 342.352C645.871 342.969 645.441 343.492 644.887 343.922C644.34 344.352 643.699 344.68 642.965 344.906C642.23 345.125 641.43 345.234 640.562 345.234C639.844 345.234 639.137 345.137 638.441 344.941C637.754 344.738 637.129 344.438 636.566 344.039C636.012 343.633 635.566 343.125 635.23 342.516C634.902 341.898 634.738 341.168 634.738 340.324H638.125C638.125 340.762 638.234 341.152 638.453 341.496C638.672 341.84 638.973 342.109 639.355 342.305C639.746 342.5 640.18 342.598 640.656 342.598C641.195 342.598 641.656 342.5 642.039 342.305C642.43 342.102 642.727 341.82 642.93 341.461C643.141 341.094 643.246 340.668 643.246 340.184C643.246 339.559 643.133 339.059 642.906 338.684C642.68 338.301 642.355 338.02 641.934 337.84C641.512 337.66 641.012 337.57 640.434 337.57H638.629ZM660.438 334.969V337.922C660.438 339.203 660.301 340.309 660.027 341.238C659.754 342.16 659.359 342.918 658.844 343.512C658.336 344.098 657.73 344.531 657.027 344.812C656.324 345.094 655.543 345.234 654.684 345.234C653.996 345.234 653.355 345.148 652.762 344.977C652.168 344.797 651.633 344.52 651.156 344.145C650.688 343.77 650.281 343.297 649.938 342.727C649.602 342.148 649.344 341.461 649.164 340.664C648.984 339.867 648.895 338.953 648.895 337.922V334.969C648.895 333.688 649.031 332.59 649.305 331.676C649.586 330.754 649.98 330 650.488 329.414C651.004 328.828 651.613 328.398 652.316 328.125C653.02 327.844 653.801 327.703 654.66 327.703C655.348 327.703 655.984 327.793 656.57 327.973C657.164 328.145 657.699 328.414 658.176 328.781C658.652 329.148 659.059 329.621 659.395 330.199C659.73 330.77 659.988 331.453 660.168 332.25C660.348 333.039 660.438 333.945 660.438 334.969ZM657.051 338.367V334.512C657.051 333.895 657.016 333.355 656.945 332.895C656.883 332.434 656.785 332.043 656.652 331.723C656.52 331.395 656.355 331.129 656.16 330.926C655.965 330.723 655.742 330.574 655.492 330.48C655.242 330.387 654.965 330.34 654.66 330.34C654.277 330.34 653.938 330.414 653.641 330.562C653.352 330.711 653.105 330.949 652.902 331.277C652.699 331.598 652.543 332.027 652.434 332.566C652.332 333.098 652.281 333.746 652.281 334.512V338.367C652.281 338.984 652.312 339.527 652.375 339.996C652.445 340.465 652.547 340.867 652.68 341.203C652.82 341.531 652.984 341.801 653.172 342.012C653.367 342.215 653.59 342.363 653.84 342.457C654.098 342.551 654.379 342.598 654.684 342.598C655.059 342.598 655.391 342.523 655.68 342.375C655.977 342.219 656.227 341.977 656.43 341.648C656.641 341.312 656.797 340.875 656.898 340.336C657 339.797 657.051 339.141 657.051 338.367Z" fill="#2A3071"/>
</svg>
